<svg xmlns="http://www.w3.org/2000/svg" viewBox="0 0 500 500"><g id="freepik--code-2--inject-7"><path d="M292.82,78.82H290a.7.7,0,0,1,0-1.39h2.82a.7.7,0,0,1,0,1.39Zm.69,2.52a.69.69,0,0,0-.69-.69H290A.7.7,0,0,0,290,82h2.82A.69.69,0,0,0,293.51,81.34Zm0,3.23a.69.69,0,0,0-.69-.7H290a.7.7,0,0,0,0,1.39h2.82A.69.69,0,0,0,293.51,84.57Zm0,3.22a.69.69,0,0,0-.69-.7H290a.7.7,0,0,0,0,1.39h2.82A.69.69,0,0,0,293.51,87.79Zm0,3.22a.69.69,0,0,0-.69-.7H290a.7.7,0,0,0,0,1.39h2.82A.69.69,0,0,0,293.51,91Zm0,3.22a.69.69,0,0,0-.69-.7H290a.7.7,0,0,0,0,1.39h2.82A.69.69,0,0,0,293.51,94.23Zm0,3.22a.69.69,0,0,0-.69-.7H290a.7.7,0,0,0,0,1.39h2.82A.69.69,0,0,0,293.51,97.45Zm0,3.22a.7.7,0,0,0-.69-.7H290a.7.7,0,0,0-.69.7.69.69,0,0,0,.69.69h2.82A.69.69,0,0,0,293.51,100.67Zm10.55-22.55a.69.69,0,0,0-.7-.69H296a.7.7,0,0,0,0,1.39h7.4A.7.7,0,0,0,304.06,78.12Zm0,3.22a.69.69,0,0,0-.7-.69H296A.7.7,0,0,0,296,82h7.4A.7.7,0,0,0,304.06,81.34Zm0,3.23a.7.7,0,0,0-.7-.7H296a.7.7,0,0,0,0,1.39h7.4A.69.69,0,0,0,304.06,84.57Zm0,3.22a.7.7,0,0,0-.7-.7H296a.7.7,0,0,0,0,1.39h7.4A.69.69,0,0,0,304.06,87.79Zm0,3.22a.7.7,0,0,0-.7-.7H296a.7.7,0,0,0,0,1.39h7.4A.69.69,0,0,0,304.06,91Zm8.86,3.22a.7.7,0,0,0-.7-.7h-7.4a.7.7,0,0,0,0,1.39h7.4A.7.7,0,0,0,312.92,94.23Zm0,3.22a.7.7,0,0,0-.7-.7h-7.4a.7.7,0,0,0,0,1.39h7.4A.7.7,0,0,0,312.92,97.45Zm0,3.22a.71.71,0,0,0-.7-.7h-7.4a.7.7,0,0,0-.69.7.69.69,0,0,0,.69.69h7.4A.7.7,0,0,0,312.92,100.67Zm-5.61-22.55a.81.81,0,1,0-.8.81A.8.8,0,0,0,307.31,78.12Zm2.42,0a.81.81,0,1,0-.81.81A.8.8,0,0,0,309.73,78.12Zm2.41,0a.81.81,0,1,0-.8.81A.8.8,0,0,0,312.14,78.12Zm2.42,0a.81.81,0,1,0-.8.81A.8.8,0,0,0,314.56,78.12Zm2.42,0a.81.81,0,1,0-.81.81A.8.8,0,0,0,317,78.12Zm2.41,0a.81.81,0,1,0-.8.81A.8.8,0,0,0,319.39,78.12Zm-12.08,6.45a.81.81,0,1,0-.8.8A.8.8,0,0,0,307.31,84.57Zm2.42,0a.81.81,0,1,0-.81.8A.81.81,0,0,0,309.73,84.57Zm2.41,0a.81.81,0,1,0-.8.8A.8.8,0,0,0,312.14,84.57Zm2.42,0a.81.81,0,1,0-.8.8A.8.8,0,0,0,314.56,84.57Zm2.42,0a.81.81,0,1,0-.81.8A.81.81,0,0,0,317,84.57Zm2.41,0a.81.81,0,1,0-.8.8A.8.8,0,0,0,319.39,84.57Zm-3.82,9.26a.81.81,0,1,0-.81.8A.81.81,0,0,0,315.57,93.83Zm2.41,0a.81.81,0,1,0-.8.8A.8.8,0,0,0,318,93.83Zm2.42,0a.81.81,0,1,0-.81.8A.81.81,0,0,0,320.4,93.83Zm2.41,0a.81.81,0,1,0-.8.8A.8.8,0,0,0,322.81,93.83Zm2.42,0a.81.81,0,1,0-.81.8A.81.81,0,0,0,325.23,93.83Zm2.42,0a.81.81,0,1,0-.81.8A.81.81,0,0,0,327.65,93.83Zm-12.08,6.64a.81.81,0,1,0-.81.8A.81.81,0,0,0,315.57,100.47Zm2.41,0a.81.81,0,1,0-.8.8A.8.8,0,0,0,318,100.47Zm2.42,0a.81.81,0,1,0-.81.8A.81.81,0,0,0,320.4,100.47Zm2.41,0a.81.81,0,1,0-.8.8A.8.8,0,0,0,322.81,100.47Zm2.42,0a.81.81,0,1,0-.81.8A.81.81,0,0,0,325.23,100.47Zm2.42,0a.81.81,0,1,0-.81.8A.81.81,0,0,0,327.65,100.47Z" style="fill:#000000"></path><path d="M292.82,104.59H290a.7.7,0,0,1,0-1.39h2.82a.7.7,0,0,1,0,1.39Zm.69,2.53a.69.69,0,0,0-.69-.7H290a.7.7,0,0,0,0,1.39h2.82A.69.69,0,0,0,293.51,107.12Zm0,3.22a.69.69,0,0,0-.69-.7H290a.7.7,0,0,0,0,1.39h2.82A.69.69,0,0,0,293.51,110.34Zm0,3.22a.7.7,0,0,0-.69-.7H290a.7.7,0,0,0-.69.7.69.69,0,0,0,.69.69h2.82A.69.69,0,0,0,293.51,113.56Zm0,3.22a.69.69,0,0,0-.69-.69H290a.69.69,0,0,0-.69.69.7.7,0,0,0,.69.7h2.82A.7.7,0,0,0,293.51,116.78Zm0,3.22a.69.69,0,0,0-.69-.69H290a.7.7,0,0,0,0,1.39h2.82A.69.69,0,0,0,293.51,120Zm0,3.22a.69.69,0,0,0-.69-.69H290a.7.7,0,0,0,0,1.39h2.82A.69.69,0,0,0,293.51,123.22Zm0,3.22a.69.69,0,0,0-.69-.69H290a.7.7,0,0,0,0,1.39h2.82A.69.69,0,0,0,293.51,126.44Zm10.55-22.54a.7.7,0,0,0-.7-.7H296a.7.7,0,0,0,0,1.39h7.4A.69.69,0,0,0,304.06,103.9Zm0,3.22a.7.7,0,0,0-.7-.7H296a.7.7,0,0,0,0,1.39h7.4A.69.69,0,0,0,304.06,107.12Zm0,3.22a.7.7,0,0,0-.7-.7H296a.7.7,0,0,0,0,1.39h7.4A.69.69,0,0,0,304.06,110.34Zm0,3.22a.7.7,0,0,0-.7-.7H296a.7.7,0,0,0-.69.7.69.69,0,0,0,.69.69h7.4A.69.69,0,0,0,304.06,113.56Zm0,3.22a.69.69,0,0,0-.7-.69H296a.69.69,0,0,0-.69.69.7.7,0,0,0,.69.7h7.4A.7.7,0,0,0,304.06,116.78Zm8.86,3.22a.7.7,0,0,0-.7-.69h-7.4a.7.7,0,0,0,0,1.39h7.4A.7.7,0,0,0,312.92,120Zm0,3.22a.7.7,0,0,0-.7-.69h-7.4a.7.7,0,0,0,0,1.39h7.4A.7.7,0,0,0,312.92,123.22Zm0,3.22a.7.7,0,0,0-.7-.69h-7.4a.7.7,0,0,0,0,1.39h7.4A.7.7,0,0,0,312.92,126.44Zm-5.61-22.54a.81.81,0,1,0-.8.8A.8.8,0,0,0,307.31,103.9Zm2.42,0a.81.81,0,1,0-.81.8A.81.81,0,0,0,309.73,103.9Zm2.41,0a.81.81,0,1,0-.8.8A.8.8,0,0,0,312.14,103.9Zm2.42,0a.81.81,0,1,0-.8.8A.8.8,0,0,0,314.56,103.9Zm2.42,0a.81.81,0,1,0-.81.8A.81.81,0,0,0,317,103.9Zm2.41,0a.81.81,0,1,0-.8.8A.8.8,0,0,0,319.39,103.9Zm-12.08,6.44a.81.81,0,1,0-.8.8A.8.8,0,0,0,307.31,110.34Zm2.42,0a.81.81,0,1,0-.81.8A.81.81,0,0,0,309.73,110.34Zm2.41,0a.81.81,0,1,0-.8.8A.8.8,0,0,0,312.14,110.34Zm2.42,0a.81.81,0,1,0-.8.8A.8.8,0,0,0,314.56,110.34Zm2.42,0a.81.81,0,1,0-.81.8A.81.81,0,0,0,317,110.34Zm2.41,0a.81.81,0,1,0-.8.8A.8.8,0,0,0,319.39,110.34Zm-3.82,9.26a.81.81,0,1,0-.81.8A.81.81,0,0,0,315.57,119.6Zm2.41,0a.81.81,0,1,0-.8.8A.8.8,0,0,0,318,119.6Zm2.42,0a.81.81,0,1,0-.81.8A.81.81,0,0,0,320.4,119.6Zm2.41,0a.81.81,0,1,0-.8.8A.8.8,0,0,0,322.81,119.6Zm2.42,0a.81.81,0,1,0-.81.8A.81.81,0,0,0,325.23,119.6Zm2.42,0a.81.81,0,1,0-.81.8A.81.81,0,0,0,327.65,119.6Zm-12.08,6.64a.81.81,0,1,0-.81.81A.8.8,0,0,0,315.57,126.24Zm2.41,0a.81.81,0,1,0-.8.81A.8.8,0,0,0,318,126.24Zm2.42,0a.81.81,0,1,0-.81.81A.8.8,0,0,0,320.4,126.24Zm2.41,0a.81.81,0,1,0-.8.81A.8.8,0,0,0,322.81,126.24Zm2.42,0a.81.81,0,1,0-.81.81A.8.8,0,0,0,325.23,126.24Zm2.42,0a.81.81,0,1,0-.81.81A.81.81,0,0,0,327.65,126.24Z" style="fill:#000000"></path><path d="M292.82,131H290a.7.7,0,0,1,0-1.39h2.82a.7.7,0,0,1,0,1.39Zm.69,2.52a.69.69,0,0,0-.69-.69H290a.7.7,0,0,0,0,1.39h2.82A.69.69,0,0,0,293.51,133.51Zm0,3.22a.69.69,0,0,0-.69-.69H290a.7.7,0,0,0,0,1.39h2.82A.69.69,0,0,0,293.51,136.73Zm0,3.23a.69.69,0,0,0-.69-.7H290a.7.7,0,0,0,0,1.39h2.82A.69.69,0,0,0,293.51,140Zm0,3.22a.69.69,0,0,0-.69-.7H290a.7.7,0,0,0,0,1.39h2.82A.69.69,0,0,0,293.51,143.18Zm0,3.22a.69.69,0,0,0-.69-.7H290a.7.7,0,0,0,0,1.39h2.82A.69.69,0,0,0,293.51,146.4Zm0,3.22a.69.69,0,0,0-.69-.7H290a.7.7,0,0,0,0,1.39h2.82A.69.69,0,0,0,293.51,149.62Zm0,3.22a.7.7,0,0,0-.69-.7H290a.7.7,0,0,0-.69.7.69.69,0,0,0,.69.69h2.82A.69.69,0,0,0,293.51,152.84Zm10.55-22.55a.69.69,0,0,0-.7-.69H296a.7.7,0,0,0,0,1.39h7.4A.7.7,0,0,0,304.06,130.29Zm0,3.22a.69.69,0,0,0-.7-.69H296a.7.7,0,0,0,0,1.39h7.4A.7.7,0,0,0,304.06,133.51Zm0,3.22a.69.69,0,0,0-.7-.69H296a.7.7,0,0,0,0,1.39h7.4A.7.7,0,0,0,304.06,136.73Zm0,3.23a.7.7,0,0,0-.7-.7H296a.7.7,0,0,0,0,1.39h7.4A.69.69,0,0,0,304.06,140Zm0,3.22a.7.7,0,0,0-.7-.7H296a.7.7,0,0,0,0,1.39h7.4A.69.69,0,0,0,304.06,143.18Zm8.86,3.22a.7.7,0,0,0-.7-.7h-7.4a.7.7,0,0,0,0,1.39h7.4A.7.7,0,0,0,312.92,146.4Zm0,3.22a.7.7,0,0,0-.7-.7h-7.4a.7.7,0,0,0,0,1.39h7.4A.7.7,0,0,0,312.92,149.62Zm0,3.22a.71.71,0,0,0-.7-.7h-7.4a.7.7,0,0,0-.69.7.69.69,0,0,0,.69.69h7.4A.7.7,0,0,0,312.92,152.84Zm-5.61-22.55a.81.81,0,1,0-.8.81A.8.8,0,0,0,307.31,130.29Zm2.42,0a.81.81,0,1,0-.81.81A.8.8,0,0,0,309.73,130.29Zm2.41,0a.81.81,0,1,0-.8.81A.8.8,0,0,0,312.14,130.29Zm2.42,0a.81.81,0,1,0-.8.81A.8.8,0,0,0,314.56,130.29Zm2.42,0a.81.81,0,1,0-.81.81A.8.8,0,0,0,317,130.29Zm2.41,0a.81.81,0,1,0-.8.81A.8.8,0,0,0,319.39,130.29Zm-12.08,6.44a.81.81,0,1,0-.8.81A.8.8,0,0,0,307.31,136.73Zm2.42,0a.81.81,0,1,0-.81.81A.8.8,0,0,0,309.73,136.73Zm2.41,0a.81.81,0,1,0-.8.81A.8.8,0,0,0,312.14,136.73Zm2.42,0a.81.81,0,1,0-.8.81A.8.8,0,0,0,314.56,136.73Zm2.42,0a.81.81,0,1,0-.81.81A.8.8,0,0,0,317,136.73Zm2.41,0a.81.81,0,1,0-.8.81A.8.8,0,0,0,319.39,136.73ZM315.57,146a.81.81,0,1,0-.81.81A.8.8,0,0,0,315.57,146Zm2.41,0a.81.81,0,1,0-.8.81A.8.8,0,0,0,318,146Zm2.42,0a.81.81,0,1,0-.81.81A.8.8,0,0,0,320.4,146Zm2.41,0a.81.81,0,1,0-.8.81A.8.8,0,0,0,322.81,146Zm2.42,0a.81.81,0,1,0-.81.81A.8.8,0,0,0,325.23,146Zm2.42,0a.81.81,0,1,0-.81.81A.81.81,0,0,0,327.65,146Zm-12.08,6.65a.81.81,0,1,0-.81.8A.81.81,0,0,0,315.57,152.64Zm2.41,0a.81.81,0,1,0-.8.8A.8.8,0,0,0,318,152.64Zm2.42,0a.81.81,0,1,0-.81.8A.81.81,0,0,0,320.4,152.64Zm2.41,0a.81.81,0,1,0-.8.8A.8.8,0,0,0,322.81,152.64Zm2.42,0a.81.81,0,1,0-.81.8A.81.81,0,0,0,325.23,152.64Zm2.42,0a.81.81,0,1,0-.81.8A.81.81,0,0,0,327.65,152.64Z" style="fill:#000000"></path><path d="M336.09,78.82h-2.82a.7.7,0,0,1,0-1.39h2.82a.7.7,0,0,1,0,1.39Zm.69,2.52a.69.69,0,0,0-.69-.69h-2.82a.7.7,0,0,0,0,1.39h2.82A.69.69,0,0,0,336.78,81.34Zm0,3.23a.69.69,0,0,0-.69-.7h-2.82a.7.7,0,0,0,0,1.39h2.82A.69.69,0,0,0,336.78,84.57Zm0,3.22a.69.69,0,0,0-.69-.7h-2.82a.7.7,0,0,0,0,1.39h2.82A.69.69,0,0,0,336.78,87.79Zm0,3.22a.69.69,0,0,0-.69-.7h-2.82a.7.7,0,0,0,0,1.39h2.82A.69.69,0,0,0,336.78,91Zm0,3.22a.69.69,0,0,0-.69-.7h-2.82a.7.7,0,0,0,0,1.39h2.82A.69.69,0,0,0,336.78,94.23Zm0,3.22a.69.69,0,0,0-.69-.7h-2.82a.7.7,0,0,0,0,1.39h2.82A.69.69,0,0,0,336.78,97.45Zm0,3.22a.7.7,0,0,0-.69-.7h-2.82a.7.7,0,0,0-.69.7.69.69,0,0,0,.69.69h2.82A.69.69,0,0,0,336.78,100.67Zm10.55-22.55a.69.69,0,0,0-.7-.69h-7.4a.7.7,0,0,0,0,1.39h7.4A.7.7,0,0,0,347.33,78.12Zm0,3.22a.69.69,0,0,0-.7-.69h-7.4a.7.7,0,0,0,0,1.39h7.4A.7.7,0,0,0,347.33,81.34Zm0,3.23a.7.7,0,0,0-.7-.7h-7.4a.7.7,0,0,0,0,1.39h7.4A.69.69,0,0,0,347.33,84.57Zm0,3.22a.7.7,0,0,0-.7-.7h-7.4a.7.7,0,0,0,0,1.39h7.4A.69.69,0,0,0,347.33,87.79Zm0,3.22a.7.7,0,0,0-.7-.7h-7.4a.7.7,0,0,0,0,1.39h7.4A.69.69,0,0,0,347.33,91Zm8.85,3.22a.69.69,0,0,0-.69-.7h-7.4a.7.7,0,0,0,0,1.39h7.4A.69.69,0,0,0,356.18,94.23Zm0,3.22a.69.69,0,0,0-.69-.7h-7.4a.7.7,0,0,0,0,1.39h7.4A.69.69,0,0,0,356.18,97.45Zm0,3.22a.7.7,0,0,0-.69-.7h-7.4a.7.7,0,0,0-.69.7.69.69,0,0,0,.69.69h7.4A.69.69,0,0,0,356.18,100.67Zm-5.6-22.55a.81.81,0,1,0-.8.81A.8.8,0,0,0,350.58,78.12Zm2.42,0a.81.81,0,1,0-.81.81A.8.8,0,0,0,353,78.12Zm2.41,0a.81.81,0,1,0-.8.81A.8.8,0,0,0,355.41,78.12Zm2.42,0a.81.81,0,1,0-.81.81A.8.8,0,0,0,357.83,78.12Zm2.41,0a.8.8,0,0,0-.8-.8.81.81,0,1,0,.8.8Zm2.42,0a.81.81,0,1,0-.8.81A.8.8,0,0,0,362.66,78.12Zm-12.08,6.45a.81.81,0,1,0-.8.8A.8.8,0,0,0,350.58,84.57Zm2.42,0a.81.81,0,1,0-.81.8A.81.81,0,0,0,353,84.57Zm2.41,0a.81.81,0,1,0-.8.8A.8.8,0,0,0,355.41,84.57Zm2.42,0a.81.81,0,1,0-.81.8A.81.81,0,0,0,357.83,84.57Zm2.41,0a.8.8,0,0,0-.8-.81.81.81,0,1,0,0,1.61A.8.8,0,0,0,360.24,84.57Zm2.42,0a.81.81,0,1,0-.8.8A.8.8,0,0,0,362.66,84.57Zm-3.82,9.26a.81.81,0,1,0-.81.8A.81.81,0,0,0,358.84,93.83Zm2.41,0a.81.81,0,1,0-.8.8A.8.8,0,0,0,361.25,93.83Zm2.42,0a.81.81,0,1,0-.81.8A.81.81,0,0,0,363.67,93.83Zm2.41,0a.81.81,0,1,0-.8.8A.8.8,0,0,0,366.08,93.83Zm2.42,0a.81.81,0,1,0-.81.8A.81.81,0,0,0,368.5,93.83Zm2.41,0a.81.81,0,1,0-.8.8A.8.8,0,0,0,370.91,93.83Zm-12.07,6.64a.81.81,0,1,0-.81.8A.81.81,0,0,0,358.84,100.47Zm2.41,0a.81.81,0,1,0-.8.8A.8.8,0,0,0,361.25,100.47Zm2.42,0a.81.81,0,1,0-.81.8A.81.81,0,0,0,363.67,100.47Zm2.41,0a.81.81,0,1,0-.8.8A.8.8,0,0,0,366.08,100.47Zm2.42,0a.81.81,0,1,0-.81.8A.81.81,0,0,0,368.5,100.47Zm2.41,0a.81.81,0,1,0-.8.8A.8.8,0,0,0,370.91,100.47Z" style="fill:#000000"></path><path d="M336.09,105.21h-2.82a.69.69,0,0,1-.69-.69.7.7,0,0,1,.69-.7h2.82a.7.7,0,0,1,.69.7A.69.69,0,0,1,336.09,105.21Zm.69,2.53a.69.69,0,0,0-.69-.69h-2.82a.69.69,0,0,0-.69.69.7.7,0,0,0,.69.7h2.82A.7.7,0,0,0,336.78,107.74Zm0,3.22a.69.69,0,0,0-.69-.69h-2.82a.7.7,0,0,0,0,1.39h2.82A.69.69,0,0,0,336.78,111Zm0,3.22a.69.69,0,0,0-.69-.69h-2.82a.7.7,0,0,0,0,1.39h2.82A.69.69,0,0,0,336.78,114.18Zm0,3.22a.69.69,0,0,0-.69-.69h-2.82a.7.7,0,0,0,0,1.39h2.82A.69.69,0,0,0,336.78,117.4Zm0,3.22a.69.69,0,0,0-.69-.69h-2.82a.7.7,0,0,0,0,1.39h2.82A.69.69,0,0,0,336.78,120.62Zm0,3.23a.69.69,0,0,0-.69-.7h-2.82a.7.7,0,0,0,0,1.39h2.82A.69.69,0,0,0,336.78,123.85Zm0,3.22a.69.69,0,0,0-.69-.7h-2.82a.7.7,0,0,0,0,1.39h2.82A.69.69,0,0,0,336.78,127.07Zm10.55-22.55a.7.7,0,0,0-.7-.7h-7.4a.7.7,0,0,0-.69.7.69.69,0,0,0,.69.69h7.4A.69.69,0,0,0,347.33,104.52Zm0,3.22a.69.69,0,0,0-.7-.69h-7.4a.69.69,0,0,0-.69.69.7.7,0,0,0,.69.7h7.4A.7.7,0,0,0,347.33,107.74Zm0,3.22a.69.69,0,0,0-.7-.69h-7.4a.7.7,0,0,0,0,1.39h7.4A.7.7,0,0,0,347.33,111Zm0,3.22a.69.69,0,0,0-.7-.69h-7.4a.7.7,0,0,0,0,1.39h7.4A.7.7,0,0,0,347.33,114.18Zm0,3.22a.69.69,0,0,0-.7-.69h-7.4a.7.7,0,0,0,0,1.39h7.4A.7.7,0,0,0,347.33,117.4Zm8.85,3.22a.69.69,0,0,0-.69-.69h-7.4a.7.7,0,0,0,0,1.39h7.4A.69.69,0,0,0,356.18,120.62Zm0,3.23a.69.69,0,0,0-.69-.7h-7.4a.7.7,0,0,0,0,1.39h7.4A.69.69,0,0,0,356.18,123.85Zm0,3.22a.69.69,0,0,0-.69-.7h-7.4a.7.7,0,0,0,0,1.39h7.4A.69.69,0,0,0,356.18,127.07Zm-5.6-22.55a.81.81,0,1,0-.8.8A.8.8,0,0,0,350.58,104.52Zm2.42,0a.81.81,0,1,0-.81.8A.81.81,0,0,0,353,104.52Zm2.41,0a.81.81,0,1,0-.8.8A.8.8,0,0,0,355.41,104.52Zm2.42,0a.81.81,0,1,0-.81.8A.81.81,0,0,0,357.83,104.52Zm2.41,0a.8.8,0,0,0-.8-.81.81.81,0,1,0,0,1.61A.8.8,0,0,0,360.24,104.52Zm2.42,0a.81.81,0,1,0-.8.8A.8.8,0,0,0,362.66,104.52ZM350.58,111a.81.81,0,1,0-.8.81A.8.8,0,0,0,350.58,111Zm2.42,0a.81.81,0,1,0-.81.81A.8.8,0,0,0,353,111Zm2.41,0a.81.81,0,1,0-.8.81A.8.8,0,0,0,355.41,111Zm2.42,0a.81.81,0,1,0-.81.81A.8.8,0,0,0,357.83,111Zm2.41,0a.8.8,0,0,0-.8-.8.81.81,0,1,0,.8.8Zm2.42,0a.81.81,0,1,0-.8.81A.8.8,0,0,0,362.66,111Zm-3.82,9.26a.81.81,0,1,0-.81.81A.8.8,0,0,0,358.84,120.22Zm2.41,0a.81.81,0,1,0-.8.81A.8.8,0,0,0,361.25,120.22Zm2.42,0a.81.81,0,1,0-.81.81A.8.8,0,0,0,363.67,120.22Zm2.41,0a.81.81,0,1,0-.8.81A.8.8,0,0,0,366.08,120.22Zm2.42,0a.81.81,0,1,0-.81.81A.8.8,0,0,0,368.5,120.22Zm2.41,0a.81.81,0,1,0-.8.81A.8.8,0,0,0,370.91,120.22Zm-12.07,6.64a.81.81,0,1,0-.81.81A.8.8,0,0,0,358.84,126.86Zm2.41,0a.81.81,0,1,0-.8.81A.8.8,0,0,0,361.25,126.86Zm2.42,0a.81.81,0,1,0-.81.81A.8.8,0,0,0,363.67,126.86Zm2.41,0a.81.81,0,1,0-.8.81A.8.8,0,0,0,366.08,126.86Zm2.42,0a.81.81,0,1,0-.81.81A.8.8,0,0,0,368.5,126.86Zm2.41,0a.81.81,0,1,0-.8.81A.8.8,0,0,0,370.91,126.86Z" style="fill:#000000"></path><path d="M85.91,335.08H83.09a.7.7,0,0,1,0-1.39h2.82a.7.7,0,1,1,0,1.39Zm.7,2.52a.69.69,0,0,0-.7-.69H83.09a.7.7,0,0,0,0,1.39h2.82A.7.7,0,0,0,86.61,337.6Zm0,3.23a.7.7,0,0,0-.7-.7H83.09a.7.7,0,0,0,0,1.39h2.82A.69.69,0,0,0,86.61,340.83Zm0,3.22a.7.7,0,0,0-.7-.7H83.09a.7.7,0,0,0,0,1.39h2.82A.69.69,0,0,0,86.61,344.05Zm0,3.22a.7.7,0,0,0-.7-.7H83.09a.7.7,0,0,0,0,1.39h2.82A.69.69,0,0,0,86.61,347.27Zm0,3.22a.7.7,0,0,0-.7-.7H83.09a.7.7,0,0,0,0,1.39h2.82A.69.69,0,0,0,86.61,350.49Zm0,3.22a.7.7,0,0,0-.7-.7H83.09a.7.7,0,0,0,0,1.39h2.82A.69.69,0,0,0,86.61,353.71Zm0,3.22a.7.7,0,0,0-.7-.7H83.09a.7.7,0,0,0-.69.7.69.69,0,0,0,.69.69h2.82A.69.69,0,0,0,86.61,356.93Zm10.54-22.55a.69.69,0,0,0-.7-.69H89.06a.7.7,0,1,0,0,1.39h7.39A.7.7,0,0,0,97.15,334.38Zm0,3.22a.69.69,0,0,0-.7-.69H89.06a.7.7,0,1,0,0,1.39h7.39A.7.7,0,0,0,97.15,337.6Zm0,3.23a.7.7,0,0,0-.7-.7H89.06a.7.7,0,1,0,0,1.39h7.39A.69.69,0,0,0,97.15,340.83Zm0,3.22a.7.7,0,0,0-.7-.7H89.06a.7.7,0,1,0,0,1.39h7.39A.69.69,0,0,0,97.15,344.05Zm0,3.22a.7.7,0,0,0-.7-.7H89.06a.7.7,0,1,0,0,1.39h7.39A.69.69,0,0,0,97.15,347.27Zm8.86,3.22a.7.7,0,0,0-.7-.7h-7.4a.7.7,0,0,0,0,1.39h7.4A.69.69,0,0,0,106,350.49Zm0,3.22a.7.7,0,0,0-.7-.7h-7.4a.7.7,0,0,0,0,1.39h7.4A.69.69,0,0,0,106,353.71Zm0,3.22a.7.7,0,0,0-.7-.7h-7.4a.7.7,0,0,0-.69.7.69.69,0,0,0,.69.69h7.4A.69.69,0,0,0,106,356.93Zm-5.6-22.55a.81.81,0,1,0-.81.81A.81.81,0,0,0,100.41,334.38Zm2.41,0a.81.81,0,1,0-.8.81A.8.8,0,0,0,102.82,334.38Zm2.42,0a.81.81,0,1,0-.81.81A.8.8,0,0,0,105.24,334.38Zm2.41,0a.81.81,0,1,0-.8.81A.8.8,0,0,0,107.65,334.38Zm2.42,0a.81.81,0,1,0-.81.81A.8.8,0,0,0,110.07,334.38Zm2.41,0a.81.81,0,1,0-.8.81A.8.8,0,0,0,112.48,334.38Zm-12.07,6.45a.81.81,0,1,0-.81.8A.81.81,0,0,0,100.41,340.83Zm2.41,0a.81.81,0,1,0-.8.8A.8.8,0,0,0,102.82,340.83Zm2.42,0a.81.81,0,1,0-.81.8A.81.81,0,0,0,105.24,340.83Zm2.41,0a.81.81,0,1,0-.8.8A.8.8,0,0,0,107.65,340.83Zm2.42,0a.81.81,0,1,0-.81.8A.81.81,0,0,0,110.07,340.83Zm2.41,0a.81.81,0,1,0-.8.8A.8.8,0,0,0,112.48,340.83Zm-3.82,9.26a.81.81,0,1,0-.81.8A.81.81,0,0,0,108.66,350.09Zm2.41,0a.81.81,0,1,0-.8.8A.8.8,0,0,0,111.07,350.09Zm2.42,0a.81.81,0,1,0-.81.8A.81.81,0,0,0,113.49,350.09Zm2.42,0a.81.81,0,1,0-.81.8A.81.81,0,0,0,115.91,350.09Zm2.41,0a.81.81,0,1,0-.8.8A.8.8,0,0,0,118.32,350.09Zm2.42,0a.81.81,0,1,0-.81.8A.81.81,0,0,0,120.74,350.09Zm-12.08,6.64a.81.81,0,1,0-.81.8A.81.81,0,0,0,108.66,356.73Zm2.41,0a.81.81,0,1,0-.8.8A.8.8,0,0,0,111.07,356.73Zm2.42,0a.81.81,0,1,0-.81.8A.81.81,0,0,0,113.49,356.73Zm2.42,0a.81.81,0,1,0-.81.8A.81.81,0,0,0,115.91,356.73Zm2.41,0a.81.81,0,1,0-.8.8A.8.8,0,0,0,118.32,356.73Zm2.42,0a.81.81,0,1,0-.81.8A.81.81,0,0,0,120.74,356.73Z" style="fill:#000000"></path><path d="M85.91,360.85H83.09a.7.7,0,0,1,0-1.39h2.82a.7.7,0,1,1,0,1.39Zm.7,2.53a.7.7,0,0,0-.7-.7H83.09a.7.7,0,0,0,0,1.39h2.82A.69.69,0,0,0,86.61,363.38Zm0,3.22a.7.7,0,0,0-.7-.7H83.09a.7.7,0,0,0,0,1.39h2.82A.69.69,0,0,0,86.61,366.6Zm0,3.22a.7.7,0,0,0-.7-.7H83.09a.7.7,0,0,0-.69.7.69.69,0,0,0,.69.69h2.82A.69.69,0,0,0,86.61,369.82Zm0,3.22a.69.69,0,0,0-.7-.69H83.09a.69.69,0,0,0-.69.69.7.7,0,0,0,.69.7h2.82A.7.7,0,0,0,86.61,373Zm0,3.22a.69.69,0,0,0-.7-.69H83.09a.7.7,0,0,0,0,1.39h2.82A.7.7,0,0,0,86.61,376.26Zm0,3.22a.69.69,0,0,0-.7-.69H83.09a.7.7,0,0,0,0,1.39h2.82A.7.7,0,0,0,86.61,379.48Zm0,3.22a.69.69,0,0,0-.7-.69H83.09a.7.7,0,0,0,0,1.39h2.82A.7.7,0,0,0,86.61,382.7Zm10.54-22.54a.7.7,0,0,0-.7-.7H89.06a.7.7,0,1,0,0,1.39h7.39A.69.69,0,0,0,97.15,360.16Zm0,3.22a.7.7,0,0,0-.7-.7H89.06a.7.7,0,1,0,0,1.39h7.39A.69.69,0,0,0,97.15,363.38Zm0,3.22a.7.7,0,0,0-.7-.7H89.06a.7.7,0,1,0,0,1.39h7.39A.69.69,0,0,0,97.15,366.6Zm0,3.22a.7.7,0,0,0-.7-.7H89.06a.7.7,0,0,0-.7.7.69.69,0,0,0,.7.69h7.39A.69.69,0,0,0,97.15,369.82Zm0,3.22a.69.69,0,0,0-.7-.69H89.06a.69.69,0,0,0-.7.69.7.7,0,0,0,.7.7h7.39A.7.7,0,0,0,97.15,373Zm8.86,3.22a.69.69,0,0,0-.7-.69h-7.4a.7.7,0,0,0,0,1.39h7.4A.7.7,0,0,0,106,376.26Zm0,3.22a.69.69,0,0,0-.7-.69h-7.4a.7.7,0,0,0,0,1.39h7.4A.7.7,0,0,0,106,379.48Zm0,3.22a.69.69,0,0,0-.7-.69h-7.4a.7.7,0,0,0,0,1.39h7.4A.7.7,0,0,0,106,382.7Zm-5.6-22.54a.81.81,0,1,0-.81.8A.81.81,0,0,0,100.41,360.16Zm2.41,0a.81.81,0,1,0-.8.8A.8.8,0,0,0,102.82,360.16Zm2.42,0a.81.81,0,1,0-.81.8A.81.81,0,0,0,105.24,360.16Zm2.41,0a.81.81,0,1,0-.8.8A.8.8,0,0,0,107.65,360.16Zm2.42,0a.81.81,0,1,0-.81.8A.81.81,0,0,0,110.07,360.16Zm2.41,0a.81.81,0,1,0-.8.8A.8.8,0,0,0,112.48,360.16Zm-12.07,6.44a.81.81,0,1,0-.81.8A.81.81,0,0,0,100.41,366.6Zm2.41,0a.81.81,0,1,0-.8.8A.8.8,0,0,0,102.82,366.6Zm2.42,0a.81.81,0,1,0-.81.8A.81.81,0,0,0,105.24,366.6Zm2.41,0a.81.81,0,1,0-.8.8A.8.8,0,0,0,107.65,366.6Zm2.42,0a.81.81,0,1,0-.81.8A.81.81,0,0,0,110.07,366.6Zm2.41,0a.81.81,0,1,0-.8.8A.8.8,0,0,0,112.48,366.6Zm-3.82,9.26a.81.81,0,1,0-.81.8A.81.81,0,0,0,108.66,375.86Zm2.41,0a.81.81,0,1,0-.8.8A.8.8,0,0,0,111.07,375.86Zm2.42,0a.81.81,0,1,0-.81.8A.81.81,0,0,0,113.49,375.86Zm2.42,0a.81.81,0,1,0-.81.8A.81.81,0,0,0,115.91,375.86Zm2.41,0a.81.81,0,1,0-.8.8A.8.8,0,0,0,118.32,375.86Zm2.42,0a.81.81,0,1,0-.81.8A.81.81,0,0,0,120.74,375.86Zm-12.08,6.64a.81.81,0,1,0-.81.81A.8.8,0,0,0,108.66,382.5Zm2.41,0a.81.81,0,1,0-.8.81A.8.8,0,0,0,111.07,382.5Zm2.42,0a.81.81,0,1,0-.81.81A.8.8,0,0,0,113.49,382.5Zm2.42,0a.81.81,0,1,0-.81.81A.8.8,0,0,0,115.91,382.5Zm2.41,0a.81.81,0,1,0-.8.81A.8.8,0,0,0,118.32,382.5Zm2.42,0a.81.81,0,1,0-.81.81A.8.8,0,0,0,120.74,382.5Z" style="fill:#000000"></path><path d="M85.91,387.25H83.09a.7.7,0,0,1,0-1.39h2.82a.7.7,0,1,1,0,1.39Zm.7,2.52a.69.69,0,0,0-.7-.69H83.09a.7.7,0,0,0,0,1.39h2.82A.7.7,0,0,0,86.61,389.77Zm0,3.22a.69.69,0,0,0-.7-.69H83.09a.7.7,0,0,0,0,1.39h2.82A.7.7,0,0,0,86.61,393Zm0,3.23a.7.7,0,0,0-.7-.7H83.09a.7.7,0,0,0,0,1.39h2.82A.69.69,0,0,0,86.61,396.22Zm0,3.22a.7.7,0,0,0-.7-.7H83.09a.7.7,0,0,0,0,1.39h2.82A.69.69,0,0,0,86.61,399.44Zm0,3.22a.7.7,0,0,0-.7-.7H83.09a.7.7,0,0,0,0,1.39h2.82A.69.69,0,0,0,86.61,402.66Zm0,3.22a.7.7,0,0,0-.7-.7H83.09a.7.7,0,0,0,0,1.39h2.82A.69.69,0,0,0,86.61,405.88Zm0,3.22a.7.7,0,0,0-.7-.7H83.09a.7.7,0,0,0,0,1.39h2.82A.69.69,0,0,0,86.61,409.1Zm10.54-22.55a.69.69,0,0,0-.7-.69H89.06a.7.7,0,1,0,0,1.39h7.39A.7.7,0,0,0,97.15,386.55Zm0,3.22a.69.69,0,0,0-.7-.69H89.06a.7.7,0,1,0,0,1.39h7.39A.7.7,0,0,0,97.15,389.77Zm0,3.22a.69.69,0,0,0-.7-.69H89.06a.7.7,0,1,0,0,1.39h7.39A.7.7,0,0,0,97.15,393Zm0,3.23a.7.7,0,0,0-.7-.7H89.06a.7.7,0,1,0,0,1.39h7.39A.69.69,0,0,0,97.15,396.22Zm0,3.22a.7.7,0,0,0-.7-.7H89.06a.7.7,0,1,0,0,1.39h7.39A.69.69,0,0,0,97.15,399.44Zm8.86,3.22a.7.7,0,0,0-.7-.7h-7.4a.7.7,0,0,0,0,1.39h7.4A.69.69,0,0,0,106,402.66Zm0,3.22a.7.7,0,0,0-.7-.7h-7.4a.7.7,0,0,0,0,1.39h7.4A.69.69,0,0,0,106,405.88Zm0,3.22a.7.7,0,0,0-.7-.7h-7.4a.7.7,0,0,0,0,1.39h7.4A.69.69,0,0,0,106,409.1Zm-5.6-22.55a.81.81,0,1,0-.81.81A.81.81,0,0,0,100.41,386.55Zm2.41,0a.81.81,0,1,0-.8.81A.8.8,0,0,0,102.82,386.55Zm2.42,0a.81.81,0,1,0-.81.81A.8.8,0,0,0,105.24,386.55Zm2.41,0a.81.81,0,1,0-.8.81A.8.8,0,0,0,107.65,386.55Zm2.42,0a.81.81,0,1,0-.81.81A.8.8,0,0,0,110.07,386.55Zm2.41,0a.81.81,0,1,0-.8.81A.8.8,0,0,0,112.48,386.55ZM100.41,393a.81.81,0,1,0-.81.81A.81.81,0,0,0,100.41,393Zm2.41,0a.81.81,0,1,0-.8.81A.8.8,0,0,0,102.82,393Zm2.42,0a.81.81,0,1,0-.81.81A.8.8,0,0,0,105.24,393Zm2.41,0a.81.81,0,1,0-.8.81A.8.8,0,0,0,107.65,393Zm2.42,0a.81.81,0,1,0-.81.81A.8.8,0,0,0,110.07,393Zm2.41,0a.81.81,0,1,0-.8.81A.8.8,0,0,0,112.48,393Zm-3.82,9.26a.81.81,0,1,0-.81.81A.8.8,0,0,0,108.66,402.25Zm2.41,0a.81.81,0,1,0-.8.81A.8.8,0,0,0,111.07,402.25Zm2.42,0a.81.81,0,1,0-.81.81A.8.8,0,0,0,113.49,402.25Zm2.42,0a.81.81,0,1,0-.81.81A.8.8,0,0,0,115.91,402.25Zm2.41,0a.81.81,0,1,0-.8.81A.8.8,0,0,0,118.32,402.25Zm2.42,0a.81.81,0,1,0-.81.81A.8.8,0,0,0,120.74,402.25Zm-12.08,6.65a.81.81,0,1,0-.81.8A.81.81,0,0,0,108.66,408.9Zm2.41,0a.81.81,0,1,0-.8.8A.8.8,0,0,0,111.07,408.9Zm2.42,0a.81.81,0,1,0-.81.8A.81.81,0,0,0,113.49,408.9Zm2.42,0a.81.81,0,1,0-.81.8A.81.81,0,0,0,115.91,408.9Zm2.41,0a.81.81,0,1,0-.8.8A.8.8,0,0,0,118.32,408.9Zm2.42,0a.81.81,0,1,0-.81.8A.81.81,0,0,0,120.74,408.9Z" style="fill:#000000"></path><path d="M129.18,335.08h-2.82a.7.7,0,0,1,0-1.39h2.82a.7.7,0,1,1,0,1.39Zm.7,2.52a.7.7,0,0,0-.7-.69h-2.82a.7.7,0,0,0,0,1.39h2.82A.7.7,0,0,0,129.88,337.6Zm0,3.23a.7.7,0,0,0-.7-.7h-2.82a.7.7,0,0,0,0,1.39h2.82A.7.7,0,0,0,129.88,340.83Zm0,3.22a.7.7,0,0,0-.7-.7h-2.82a.7.7,0,0,0,0,1.39h2.82A.7.7,0,0,0,129.88,344.05Zm0,3.22a.7.7,0,0,0-.7-.7h-2.82a.7.7,0,0,0,0,1.39h2.82A.7.7,0,0,0,129.88,347.27Zm0,3.22a.7.7,0,0,0-.7-.7h-2.82a.7.7,0,0,0,0,1.39h2.82A.7.7,0,0,0,129.88,350.49Zm0,3.22a.7.7,0,0,0-.7-.7h-2.82a.7.7,0,0,0,0,1.39h2.82A.7.7,0,0,0,129.88,353.71Zm0,3.22a.71.71,0,0,0-.7-.7h-2.82a.7.7,0,0,0-.69.7.69.69,0,0,0,.69.69h2.82A.7.7,0,0,0,129.88,356.93Zm10.54-22.55a.69.69,0,0,0-.7-.69h-7.39a.7.7,0,1,0,0,1.39h7.39A.7.7,0,0,0,140.42,334.38Zm0,3.22a.69.69,0,0,0-.7-.69h-7.39a.7.7,0,1,0,0,1.39h7.39A.7.7,0,0,0,140.42,337.6Zm0,3.23a.7.7,0,0,0-.7-.7h-7.39a.7.7,0,1,0,0,1.39h7.39A.69.69,0,0,0,140.42,340.83Zm0,3.22a.7.7,0,0,0-.7-.7h-7.39a.7.7,0,1,0,0,1.39h7.39A.69.69,0,0,0,140.42,344.05Zm0,3.22a.7.7,0,0,0-.7-.7h-7.39a.7.7,0,1,0,0,1.39h7.39A.69.69,0,0,0,140.42,347.27Zm8.86,3.22a.7.7,0,0,0-.7-.7h-7.4a.7.7,0,0,0,0,1.39h7.4A.7.7,0,0,0,149.28,350.49Zm0,3.22a.7.7,0,0,0-.7-.7h-7.4a.7.7,0,0,0,0,1.39h7.4A.7.7,0,0,0,149.28,353.71Zm0,3.22a.71.71,0,0,0-.7-.7h-7.4a.7.7,0,0,0-.69.7.69.69,0,0,0,.69.69h7.4A.7.7,0,0,0,149.28,356.93Zm-5.61-22.55a.81.81,0,1,0-.8.81A.8.8,0,0,0,143.67,334.38Zm2.42,0a.81.81,0,1,0-.81.81A.8.8,0,0,0,146.09,334.38Zm2.42,0a.81.81,0,0,0-.81-.8.81.81,0,0,0,0,1.61A.81.81,0,0,0,148.51,334.38Zm2.41,0a.81.81,0,1,0-.8.81A.8.8,0,0,0,150.92,334.38Zm2.42,0a.81.81,0,1,0-.81.81A.8.8,0,0,0,153.34,334.38Zm2.41,0a.81.81,0,1,0-.8.81A.8.8,0,0,0,155.75,334.38Zm-12.08,6.45a.81.81,0,1,0-.8.8A.8.8,0,0,0,143.67,340.83Zm2.42,0a.81.81,0,1,0-.81.8A.81.81,0,0,0,146.09,340.83Zm2.42,0a.81.81,0,0,0-.81-.81.81.81,0,1,0,.81.81Zm2.41,0a.81.81,0,1,0-.8.8A.8.8,0,0,0,150.92,340.83Zm2.42,0a.81.81,0,1,0-.81.8A.81.81,0,0,0,153.34,340.83Zm2.41,0a.81.81,0,1,0-.8.8A.8.8,0,0,0,155.75,340.83Zm-3.82,9.26a.81.81,0,1,0-.81.8A.81.81,0,0,0,151.93,350.09Zm2.41,0a.81.81,0,1,0-.8.8A.8.8,0,0,0,154.34,350.09Zm2.42,0a.81.81,0,1,0-.81.8A.81.81,0,0,0,156.76,350.09Zm2.41,0a.81.81,0,1,0-.8.8A.8.8,0,0,0,159.17,350.09Zm2.42,0a.81.81,0,1,0-.81.8A.81.81,0,0,0,161.59,350.09Zm2.42,0a.81.81,0,1,0-.81.8A.81.81,0,0,0,164,350.09Zm-12.08,6.64a.81.81,0,1,0-.81.8A.81.81,0,0,0,151.93,356.73Zm2.41,0a.81.81,0,1,0-.8.8A.8.8,0,0,0,154.34,356.73Zm2.42,0a.81.81,0,1,0-.81.8A.81.81,0,0,0,156.76,356.73Zm2.41,0a.81.81,0,1,0-.8.8A.8.8,0,0,0,159.17,356.73Zm2.42,0a.81.81,0,1,0-.81.8A.81.81,0,0,0,161.59,356.73Zm2.42,0a.81.81,0,1,0-.81.8A.81.81,0,0,0,164,356.73Z" style="fill:#000000"></path><path d="M129.18,361.47h-2.82a.69.69,0,0,1-.69-.69.7.7,0,0,1,.69-.7h2.82a.71.71,0,0,1,.7.7A.7.7,0,0,1,129.18,361.47Zm.7,2.53a.7.7,0,0,0-.7-.69h-2.82a.69.69,0,0,0-.69.69.7.7,0,0,0,.69.7h2.82A.71.71,0,0,0,129.88,364Zm0,3.22a.7.7,0,0,0-.7-.69h-2.82a.7.7,0,0,0,0,1.39h2.82A.7.7,0,0,0,129.88,367.22Zm0,3.22a.7.7,0,0,0-.7-.69h-2.82a.7.7,0,0,0,0,1.39h2.82A.7.7,0,0,0,129.88,370.44Zm0,3.22a.7.7,0,0,0-.7-.69h-2.82a.7.7,0,0,0,0,1.39h2.82A.7.7,0,0,0,129.88,373.66Zm0,3.22a.7.7,0,0,0-.7-.69h-2.82a.7.7,0,0,0,0,1.39h2.82A.7.7,0,0,0,129.88,376.88Zm0,3.22a.7.7,0,0,0-.7-.69h-2.82a.7.7,0,0,0,0,1.39h2.82A.7.7,0,0,0,129.88,380.1Zm0,3.23a.7.7,0,0,0-.7-.7h-2.82a.7.7,0,0,0,0,1.39h2.82A.7.7,0,0,0,129.88,383.33Zm10.54-22.55a.7.7,0,0,0-.7-.7h-7.39a.7.7,0,0,0-.7.7.69.69,0,0,0,.7.69h7.39A.69.69,0,0,0,140.42,360.78Zm0,3.22a.69.69,0,0,0-.7-.69h-7.39a.69.69,0,0,0-.7.69.7.7,0,0,0,.7.7h7.39A.7.7,0,0,0,140.42,364Zm0,3.22a.69.69,0,0,0-.7-.69h-7.39a.7.7,0,1,0,0,1.39h7.39A.7.7,0,0,0,140.42,367.22Zm0,3.22a.69.69,0,0,0-.7-.69h-7.39a.7.7,0,1,0,0,1.39h7.39A.7.7,0,0,0,140.42,370.44Zm0,3.22a.69.69,0,0,0-.7-.69h-7.39a.7.7,0,1,0,0,1.39h7.39A.7.7,0,0,0,140.42,373.66Zm8.86,3.22a.7.7,0,0,0-.7-.69h-7.4a.7.7,0,0,0,0,1.39h7.4A.7.7,0,0,0,149.28,376.88Zm0,3.22a.7.7,0,0,0-.7-.69h-7.4a.7.7,0,0,0,0,1.39h7.4A.7.7,0,0,0,149.28,380.1Zm0,3.23a.7.7,0,0,0-.7-.7h-7.4a.7.7,0,0,0,0,1.39h7.4A.7.7,0,0,0,149.28,383.33Zm-5.61-22.55a.81.81,0,1,0-.8.8A.8.8,0,0,0,143.67,360.78Zm2.42,0a.81.81,0,1,0-.81.8A.81.81,0,0,0,146.09,360.78Zm2.42,0a.81.81,0,0,0-.81-.81.81.81,0,1,0,.81.81Zm2.41,0a.81.81,0,1,0-.8.8A.8.8,0,0,0,150.92,360.78Zm2.42,0a.81.81,0,1,0-.81.8A.81.81,0,0,0,153.34,360.78Zm2.41,0a.81.81,0,1,0-.8.8A.8.8,0,0,0,155.75,360.78Zm-12.08,6.44a.81.81,0,1,0-.8.81A.8.8,0,0,0,143.67,367.22Zm2.42,0a.81.81,0,1,0-.81.81A.8.8,0,0,0,146.09,367.22Zm2.42,0a.81.81,0,0,0-.81-.8.81.81,0,0,0,0,1.61A.81.81,0,0,0,148.51,367.22Zm2.41,0a.81.81,0,1,0-.8.81A.8.8,0,0,0,150.92,367.22Zm2.42,0a.81.81,0,1,0-.81.81A.8.8,0,0,0,153.34,367.22Zm2.41,0a.81.81,0,1,0-.8.81A.8.8,0,0,0,155.75,367.22Zm-3.82,9.26a.81.81,0,1,0-.81.81A.8.8,0,0,0,151.93,376.48Zm2.41,0a.81.81,0,1,0-.8.81A.8.8,0,0,0,154.34,376.48Zm2.42,0a.81.81,0,1,0-.81.81A.8.8,0,0,0,156.76,376.48Zm2.41,0a.81.81,0,1,0-.8.81A.8.8,0,0,0,159.17,376.48Zm2.42,0a.81.81,0,1,0-.81.81A.8.8,0,0,0,161.59,376.48Zm2.42,0a.81.81,0,1,0-.81.81A.8.8,0,0,0,164,376.48Zm-12.08,6.64a.81.81,0,1,0-.81.81A.8.8,0,0,0,151.93,383.12Zm2.41,0a.81.81,0,1,0-.8.81A.8.8,0,0,0,154.34,383.12Zm2.42,0a.81.81,0,1,0-.81.81A.8.8,0,0,0,156.76,383.12Zm2.41,0a.81.81,0,1,0-.8.81A.8.8,0,0,0,159.17,383.12Zm2.42,0a.81.81,0,1,0-.81.81A.8.8,0,0,0,161.59,383.12Zm2.42,0a.81.81,0,1,0-.81.81A.8.8,0,0,0,164,383.12Z" style="fill:#000000"></path></g><g id="freepik--face-2--inject-7"><path d="M167.76,380l.34.05-.34-.05Z" style="fill:#263238;stroke:#263238;stroke-linejoin:round"></path><path d="M177,381.19l-.51-.05c-1.3-.14-2.61-.28-3.92-.45C174.06,380.88,175.53,381.05,177,381.19Z" style="fill:#263238;stroke:#263238;stroke-linejoin:round"></path><path d="M256.63,89.27l.21.08.45.15Z" style="fill:#263238;stroke:#263238;stroke-linejoin:round"></path><path d="M173.87,335.67v69.85a50.64,50.64,0,0,0,50.64,50.64h0a50.64,50.64,0,0,0,50.64-50.64v-68.1Z" style="fill:#263238;stroke:#263238;stroke-linecap:round;stroke-linejoin:round"></path><path d="M264.93,386.57c0,4.87-2.73,8.82-6.1,8.82s-6.09-3.95-6.09-8.82,2.73-8.81,6.09-8.81S264.93,381.7,264.93,386.57Z" style="fill:#7d7d7d;stroke:#263238;stroke-linejoin:round"></path><path d="M264.93,416.72c0,4.87-2.73,8.82-6.1,8.82s-6.09-4-6.09-8.82,2.73-8.81,6.09-8.81S264.93,411.86,264.93,416.72Z" style="fill:#7d7d7d;stroke:#263238;stroke-linejoin:round"></path><path d="M277.2,98.71s-.71-.46-2-1.19c-.83-.47-1.91-1.06-3.22-1.73l-.09,0-1.29-.65-.16-.08-1.38-.66-.25-.12-1.47-.68-.3-.14-1.6-.71-.31-.13-1.75-.74-.77-.31L261.18,91l-.91-.35-1.32-.5.65.24-.35-.14-1.2-.43-1.21-.43-1.32-.46-1.33-.44.65.21-.74-.25h0c-1.09-.36-2.22-.71-3.38-1.05l-1-.29-.06,0,.11,0-.13,0c-.81-.24-1.64-.47-2.48-.69L246,86l-2.79-.68-.89-.22.95-.08-.61-.13c-1.09-.24-2.18-.47-3.3-.69l-.13,0c-1.18-.22-2.39-.43-3.61-.64a126.57,126.57,0,0,0-43.54.35c-49.5,9.1-76.81,56.89-80.79,76.81S109,219.9,109,233s-4.55,34.13,2.85,54.62,24.46,58,29,67.7,9.67,21.62,26.74,24.47h0a2,2,0,0,0,.17.23l.34.05h0c2.82.44,5.62.79,8.39,1.08l.52.05c1.61.16,3.21.29,4.79.4h0c1.58.1,3.13.18,4.66.24,9.45.32,17.84-.36,23.59-2.05,9.68-2.85,76.25-36.42,85.92-46.66,7-7.45,11.36-40.18,13.19-57.47a23,23,0,0,1-8.19,1.52c-17.89,0-32.39-21-32.39-46.85s14.5-46.84,32.39-46.84c11.21,0,21.09,8.24,26.9,20.76a125.55,125.55,0,0,0,1.1-17.91C328.41,149.35,297.69,111.23,277.2,98.71Z" style="fill:#7d7d7d;stroke:#263238;stroke-linejoin:round"></path><path d="M261.8,91.19l-.57-.21.68.26Z" style="fill:#263238;stroke:#263238;stroke-linejoin:round"></path><path d="M258.11,89.8l1.14.41-.53-.19-.41-.15-1-.34-.52-.19.52.18-.06,0,.76.28Z" style="fill:#263238;stroke:#263238;stroke-linejoin:round"></path><path d="M261.16,91h0l.05,0Z" style="fill:#263238;stroke:#263238;stroke-linejoin:round"></path><path d="M254.84,88.66l-.74-.25.74.25Z" style="fill:#263238;stroke:#263238;stroke-linejoin:round"></path><path d="M260.49,90.69l-.24-.09,1.41.54-.61-.23-.45-.18-.88-.34-.31-.12.3.12-.11,0,.67.26Z" style="fill:#263238;stroke:#263238;stroke-linejoin:round"></path><path d="M255.52,88.89h0l1.17.4-.44-.15-.39-.13-1-.35h0Z" style="fill:#263238;stroke:#263238;stroke-linejoin:round"></path><path d="M235.1,83.49l.48.08h0Z" style="fill:#263238;stroke:#263238;stroke-linejoin:round"></path><circle cx="210.3" cy="219.19" r="29.89" transform="translate(-32.12 36.15) rotate(-9.13)" style="fill:#263238;stroke:#263238;stroke-linejoin:round"></circle><circle cx="210.3" cy="219.19" r="14.98" style="fill:#6b6b6b;stroke:#263238;stroke-linejoin:round"></circle><circle cx="210.3" cy="219.19" r="11.24" style="fill:#263238;stroke:#263238;stroke-linejoin:round"></circle><circle cx="210.3" cy="219.19" r="6.56" style="fill:#000000;stroke:#263238;stroke-linejoin:round"></circle><ellipse cx="133.53" cy="219.19" rx="22.7" ry="29.89" style="fill:#263238;stroke:#263238;stroke-linejoin:round"></ellipse><ellipse cx="130.55" cy="219.19" rx="11.38" ry="14.98" style="fill:#6b6b6b;stroke:#263238;stroke-linejoin:round"></ellipse><ellipse cx="130.55" cy="219.19" rx="8.54" ry="11.24" style="fill:#263238;stroke:#263238;stroke-linejoin:round"></ellipse><path d="M135.53,219.19c0-3.62-2.23-6.56-5-6.56s-5,2.94-5,6.56,2.23,6.55,5,6.55S135.53,222.81,135.53,219.19Z" style="fill:#000000;stroke:#263238;stroke-linejoin:round"></path><path d="M161.08,262.61a17.58,17.58,0,0,0-9.23-3.75c-4.51-.22-7.92,3.33-9.15,7.32-2.31,7.52-6.36,13.3-2.89,16.19S158.23,287,158.23,287l-.07-.18c3.62.29,16.35,1.13,19.57-1.16C181.48,283,169.13,268.51,161.08,262.61Z" style="fill:#263238;stroke:#263238;stroke-linejoin:round"></path><path d="M253.46,246.94c-23.76,11.29-23.76,40.82-23.76,40.82l-22.17,10.62-3.83,10h-.13l.08.13-.08.2h.19l1.49,2.55-3.42,2.23c1.68.32,3.43.61,5.22.87l.48.82s28,3.61,45.93,1.12c0,0,16.63-4.91,22-13.73s12.94-35.71,12.94-35.71C276.34,231.54,253.46,246.94,253.46,246.94Z" style="fill:#263238;stroke:#263238;stroke-linejoin:round"></path><path d="M123.68,317a82.41,82.41,0,0,0,11.75-1.81l.25-.82q1.41-.39,2.73-.87l-1.79-2.23.78-2.55h.1l0-.2,0-.13h-.06l-2-10L123.8,287.76s0-29.53-12.45-40.82a10.8,10.8,0,0,0-3-2.5c-.93,12.36-2,27.92,3.46,43.17C114.73,295.66,119.13,306.35,123.68,317Z" style="fill:#263238;stroke:#263238;stroke-linejoin:round"></path><ellipse cx="300.88" cy="230.32" rx="32.39" ry="46.85" style="fill:#263238;stroke:#263238;stroke-linejoin:round"></ellipse><ellipse cx="300.88" cy="230.32" rx="22.55" ry="32.61" style="fill:#7a7a7a;stroke:#263238;stroke-linejoin:round"></ellipse><ellipse cx="300.88" cy="230.32" rx="13.89" ry="20.1" style="fill:#7a7a7a;stroke:#263238;stroke-linejoin:round"></ellipse><path d="M132.89,309.43H145.6a0,0,0,0,1,0,0v12.62a3.72,3.72,0,0,1-3.72,3.72h-5.26a3.72,3.72,0,0,1-3.72-3.72V309.43A0,0,0,0,1,132.89,309.43Z" style="fill:#fff;stroke:#263238;stroke-linejoin:round"></path><path d="M145.58,309.43h12.71a0,0,0,0,1,0,0v12.62a3.72,3.72,0,0,1-3.72,3.72H149.3a3.72,3.72,0,0,1-3.72-3.72V309.43A0,0,0,0,1,145.58,309.43Z" style="fill:#fff;stroke:#263238;stroke-linejoin:round"></path><path d="M158.27,309.43H171a0,0,0,0,1,0,0v12.62a3.72,3.72,0,0,1-3.72,3.72H162a3.72,3.72,0,0,1-3.72-3.72V309.43A0,0,0,0,1,158.27,309.43Z" style="fill:#fff;stroke:#263238;stroke-linejoin:round"></path><path d="M171,309.43h12.71a0,0,0,0,1,0,0v12.62a3.72,3.72,0,0,1-3.72,3.72h-5.26a3.72,3.72,0,0,1-3.72-3.72V309.43A0,0,0,0,1,171,309.43Z" style="fill:#fff;stroke:#263238;stroke-linejoin:round"></path><path d="M183.66,309.43h12.71a0,0,0,0,1,0,0v12.62a3.72,3.72,0,0,1-3.72,3.72h-5.26a3.72,3.72,0,0,1-3.72-3.72V309.43A0,0,0,0,1,183.66,309.43Z" style="fill:#fff;stroke:#263238;stroke-linejoin:round"></path><path d="M196.35,309.43h12.71a0,0,0,0,1,0,0v12.62a3.72,3.72,0,0,1-3.72,3.72h-5.26a3.72,3.72,0,0,1-3.72-3.72V309.43A0,0,0,0,1,196.35,309.43Z" style="fill:#fff;stroke:#263238;stroke-linejoin:round"></path><path d="M136.61,293.4h5.26a3.72,3.72,0,0,1,3.72,3.72v12.62a0,0,0,0,1,0,0H132.89a0,0,0,0,1,0,0V297.13A3.72,3.72,0,0,1,136.61,293.4Z" style="fill:#fff;stroke:#263238;stroke-linejoin:round"></path><path d="M149.3,293.4h5.26a3.72,3.72,0,0,1,3.72,3.72v12.62a0,0,0,0,1,0,0H145.58a0,0,0,0,1,0,0V297.13A3.72,3.72,0,0,1,149.3,293.4Z" style="fill:#fff;stroke:#263238;stroke-linejoin:round"></path><path d="M162,293.4h5.26a3.72,3.72,0,0,1,3.72,3.72v12.62a0,0,0,0,1,0,0H158.27a0,0,0,0,1,0,0V297.13A3.72,3.72,0,0,1,162,293.4Z" style="fill:#fff;stroke:#263238;stroke-linejoin:round"></path><path d="M174.69,293.4H180a3.72,3.72,0,0,1,3.72,3.72v12.62a0,0,0,0,1,0,0H171a0,0,0,0,1,0,0V297.13A3.72,3.72,0,0,1,174.69,293.4Z" style="fill:#fff;stroke:#263238;stroke-linejoin:round"></path><path d="M187.38,293.4h5.26a3.72,3.72,0,0,1,3.72,3.72v12.62a0,0,0,0,1,0,0H183.66a0,0,0,0,1,0,0V297.13A3.72,3.72,0,0,1,187.38,293.4Z" style="fill:#fff;stroke:#263238;stroke-linejoin:round"></path><path d="M200.08,293.4h5.26a3.72,3.72,0,0,1,3.72,3.72v12.62a0,0,0,0,1,0,0H196.35a0,0,0,0,1,0,0V297.13A3.72,3.72,0,0,1,200.08,293.4Z" style="fill:#fff;stroke:#263238;stroke-linejoin:round"></path><path d="M299.37,294.87c-1.44,4.61-5,7.62-7.89,6.71s-4.14-5.39-2.71-10,5-7.62,7.89-6.71S300.8,290.26,299.37,294.87Z" style="fill:#263238;stroke:#263238;stroke-linejoin:round"></path><path d="M289.74,315.47c-.79,2.54-2.74,4.2-4.36,3.7s-2.28-3-1.49-5.52,2.74-4.2,4.36-3.7S290.53,312.92,289.74,315.47Z" style="fill:#263238;stroke:#263238;stroke-linejoin:round"></path><line x1="232.05" y1="219.19" x2="268.04" y2="219.19" style="fill:none;stroke:#263238;stroke-linejoin:round"></line><path d="M199.19,189.17s-5.34-73.47,64.19-97.33" style="fill:none;stroke:#263238;stroke-linejoin:round"></path><path d="M134.35,189.17S128.05,108,210,81.64" style="fill:none;stroke:#263238;stroke-linejoin:round"></path><path d="M289.09,107.81s-11.38-2.27-33,13.09c0,0,11.61,6.56,16.34,17.21l-14.2,9.47" style="fill:none;stroke:#263238;stroke-linejoin:round"></path><path d="M228.21,83.35S199.76,93,182.69,119.19" style="fill:none;stroke:#263238;stroke-linejoin:round"></path><path d="M277.56,110.11s17.11,7.28,27.79,32.92" style="fill:none;stroke:#263238;stroke-linejoin:round"></path><path d="M149.37,104.19s-11.44,11.44-15.78,22.48c0,0-9.46,7.89-13.8,18.54l1.58,5.52" style="fill:none;stroke:#263238;stroke-linejoin:round"></path><path d="M187.29,249.56a34.77,34.77,0,0,1,1.81-3.49" style="fill:none;stroke:#263238;stroke-linejoin:round"></path><path d="M177.73,285.7s3.26-1.65,3.68-8.9a92.66,92.66,0,0,1,4.07-22.6" style="fill:none;stroke:#263238;stroke-linejoin:round"></path><path d="M218.51,369.75c.93.71,1.89,1.4,2.87,2.06" style="fill:none;stroke:#263238;stroke-linejoin:round"></path><path d="M140.84,355.31l8.29-19.91h45.51s6,17.91,19.76,30.85" style="fill:none;stroke:#263238;stroke-linejoin:round"></path><path d="M264.15,148a4.74,4.74,0,1,0-4.73,4.74A4.73,4.73,0,0,0,264.15,148Z" style="fill:#000000;stroke:#263238;stroke-linejoin:round"></path><path d="M311.4,147.21a4.74,4.74,0,1,0-4,5.34A4.73,4.73,0,0,0,311.4,147.21Z" style="fill:#000000;stroke:#263238;stroke-linejoin:round"></path><path d="M188.18,118.9c.11-2.36-2.17-3.8-5.08-3.21s-5.38,3-5.49,5.34,2.17,3.81,5.09,3.22S188.07,121.27,188.18,118.9Z" style="fill:#000000;stroke:#263238;stroke-linejoin:round"></path><path d="M123.34,151.52c0-2.61-1.06-4.73-2.37-4.73s-2.37,2.12-2.37,4.73,1.06,4.74,2.37,4.74S123.34,154.14,123.34,151.52Z" style="fill:#000000;stroke:#263238;stroke-linejoin:round"></path><path d="M240.77,191.29a3.15,3.15,0,1,0-3.15,3.16A3.15,3.15,0,0,0,240.77,191.29Z" style="fill:#000000;stroke:#263238;stroke-linejoin:round"></path><path d="M118.7,191.37c0-1.82-1-3.3-2.25-3.3s-2.25,1.48-2.25,3.3,1,3.31,2.25,3.31S118.7,193.2,118.7,191.37Z" style="fill:#000000;stroke:#263238;stroke-linejoin:round"></path><path d="M113.86,199.22c0-1.87-.74-3.38-1.65-3.38s-1.64,1.51-1.64,3.38.74,3.39,1.64,3.39S113.86,201.09,113.86,199.22Z" style="fill:#000000;stroke:#263238;stroke-linejoin:round"></path><path d="M111.34,207c0-1.48-.63-2.68-1.4-2.68s-1.4,1.2-1.4,2.68.63,2.68,1.4,2.68S111.34,208.47,111.34,207Z" style="fill:#000000;stroke:#263238;stroke-linejoin:round"></path><path d="M246.72,199.7a3.15,3.15,0,1,0-3.15,3.15A3.15,3.15,0,0,0,246.72,199.7Z" style="fill:#000000;stroke:#263238;stroke-linejoin:round"></path><path d="M249.17,209.15A3.15,3.15,0,1,0,246,212.3,3.15,3.15,0,0,0,249.17,209.15Z" style="fill:#000000;stroke:#263238;stroke-linejoin:round"></path></g><g id="freepik--face-3--inject-7"><polyline points="338.52 182.71 338.52 222.95 349.17 222.95" style="fill:none;stroke:#000000;stroke-linecap:round;stroke-linejoin:round;stroke-width:3px"></polyline><polyline points="347.99 234.79 336.15 234.79 336.15 275.63" style="fill:none;stroke:#000000;stroke-linecap:round;stroke-linejoin:round;stroke-width:3px"></polyline><line x1="345.03" y1="228.87" x2="318.39" y2="228.87" style="fill:none;stroke:#000000;stroke-linecap:round;stroke-linejoin:round;stroke-width:3px"></line><polygon points="223.23 380.06 223.23 380.06 223.23 380.06 223.23 380.06" style="fill:#fff;stroke:#263238;stroke-linejoin:round"></polygon><path d="M227.7,380.69q-2.23-.29-4.47-.63Q225.47,380.41,227.7,380.69Z" style="fill:#fff;stroke:#263238;stroke-linejoin:round"></path><path d="M236.93,381.59h0Z" style="fill:#fff;stroke:#263238;stroke-linejoin:round"></path><path d="M222.89,380l.34.05-.34-.05Z" style="fill:#fff;stroke:#263238;stroke-linejoin:round"></path><polygon points="241.6 381.83 241.6 381.83 241.6 381.83 241.6 381.83" style="fill:#fff;stroke:#263238;stroke-linejoin:round"></polygon><path d="M236.88,381.59c-1.56-.11-3.14-.24-4.74-.4C233.74,381.35,235.32,381.48,236.88,381.59Z" style="fill:#fff;stroke:#263238;stroke-linejoin:round"></path><path d="M241.6,381.83c-1.52-.06-3.07-.13-4.65-.24C238.53,381.7,240.08,381.77,241.6,381.83Z" style="fill:#fff;stroke:#263238;stroke-linejoin:round"></path><path d="M232.13,381.19l-.51-.05c-1.3-.14-2.61-.28-3.92-.45C229.18,380.88,230.66,381.05,232.13,381.19Z" style="fill:#fff;stroke:#263238;stroke-linejoin:round"></path><path d="M311.75,89.27l.21.08.46.15Z" style="fill:#fff;stroke:#263238;stroke-linejoin:round"></path><path d="M332.33,98.71s-.71-.46-2-1.19c-.83-.47-1.91-1.06-3.22-1.73l-.09,0-1.29-.65-.16-.08-1.38-.66-.25-.12-1.47-.68-.3-.14-1.6-.71-.31-.13-1.75-.74-.77-.31L316.31,91l-.91-.35-1.32-.5.65.24-.35-.14-1.21-.43c-.39-.15-.8-.29-1.21-.43l-1.31-.46-1.33-.44.64.21-.73-.25h-.05c-1.08-.36-2.21-.71-3.37-1.05l-1-.29-.06,0,.11,0-.13,0c-.81-.24-1.64-.47-2.48-.69L301.09,86l-2.79-.68-1-.24-.3-.06c-.89.07-46.26,3.71-68.8,34.13-22.76,30.73-13.08,80.8-13.65,95s-2.28,30.72-5.69,37.55-6.26,6.26-4.56,10.81S213.42,287,213.42,287l-5.12,13.08,5.12,10.24s-4.55,6.83-1.14,12.52a23.35,23.35,0,0,0,7.4,8s2.84,16.5-1.14,26.74c-3.38,8.68,1.42,18.57,4.35,22.42l.34.05c2.82.44,5.62.79,8.39,1.08l.52.05c1.61.16,3.21.29,4.79.4h0c1.58.1,3.13.18,4.66.24,9.45.32,17.83-.36,23.59-2.05,9.68-2.85,76.25-36.42,85.92-46.66,7-7.45,11.36-40.18,13.19-57.47a23,23,0,0,1-8.19,1.52c-17.89,0-32.39-21-32.39-46.85s14.5-46.84,32.39-46.84c11.21,0,21.09,8.24,26.9,20.76a125.55,125.55,0,0,0,1.1-17.91C383.54,149.35,352.81,111.23,332.33,98.71ZM297.1,229.09c-7.37,6.68-17.39,14.28-24.88,14.28s-17.51-7.6-24.88-14.28a13.36,13.36,0,0,1,0-19.81c7.37-6.68,17.39-14.28,24.88-14.28s17.51,7.6,24.88,14.28A13.36,13.36,0,0,1,297.1,229.09Z" style="fill:#fff;stroke:#263238;stroke-linejoin:round"></path><path d="M290.14,363.6c1.15.32,2.32.62,3.53.89" style="fill:#fff;stroke:#263238;stroke-linejoin:round"></path><path d="M240.44,310.71s5.75,37.82,44.82,51.38" style="fill:#fff;stroke:#263238;stroke-linejoin:round"></path><path d="M316.93,91.19l-.57-.21.68.26Z" style="fill:#fff;stroke:#263238;stroke-linejoin:round"></path><path d="M313.24,89.8l1.14.41-.53-.19-.41-.15-1-.34-.52-.19.52.18-.06,0,.75.28Z" style="fill:#fff;stroke:#263238;stroke-linejoin:round"></path><path d="M316.28,91h0l.05,0Z" style="fill:#fff;stroke:#263238;stroke-linejoin:round"></path><path d="M310,88.66l-.74-.25.74.25Z" style="fill:#fff;stroke:#263238;stroke-linejoin:round"></path><path d="M315.62,90.69l-.24-.09,1.4.54-.6-.23-.45-.18-.89-.34-.31-.12.31.12-.11,0,.67.26Z" style="fill:#fff;stroke:#263238;stroke-linejoin:round"></path><path d="M310.65,88.89h0l1.17.4-.44-.15L311,89l-1-.35h0Z" style="fill:#fff;stroke:#263238;stroke-linejoin:round"></path><path d="M215,261c-5.2-2.9-11-1.16-11-1.16l-.15,0a5.56,5.56,0,0,0,.46,2.78c1.71,4.55,9.11,24.47,9.11,24.47s16-4.67,18.34-9.29S220.2,263.87,215,261Z" style="fill:#263238;stroke:#263238;stroke-linejoin:round"></path><path d="M208.3,300.12s7.27-3.29,17.1,1.34a68.39,68.39,0,0,1,15,9.25h-27S209.12,308.62,208.3,300.12Z" style="fill:#263238;stroke:#263238;stroke-linejoin:round"></path><path d="M213.42,310.71s-4.21,1.74-2.48,8.68,8.74,11.46,8.74,11.46,19-1.63,20.76-20.14Z" style="fill:#fff;stroke:#263238;stroke-linejoin:round"></path><path d="M345.16,114.84c3.25.38,5.52,1,6.32,1.55" style="fill:#fff;stroke:#263238;stroke-linejoin:round"></path><path d="M273,192.79c-.13-12.73,1.52-38,14.82-56.73s38.64-22.23,53.08-21.56" style="fill:none;stroke:#263238;stroke-linejoin:round"></path><line x1="296.35" y1="219.63" x2="324.3" y2="219.63" style="fill:#fff;stroke:#263238;stroke-linejoin:round"></line><path d="M352,215.29c-5.74,0-10.39,6.73-10.39,15s4.65,15,10.39,15h26.42V215.29Z" style="fill:#263238;stroke:#263238;stroke-linejoin:round"></path><ellipse cx="378.46" cy="230.32" rx="10.4" ry="15.04" style="fill:#fff;stroke:#263238;stroke-linejoin:round"></ellipse><path d="M386.47,199.42c-11.8,0-21.37,13.83-21.37,30.9s9.57,30.91,21.37,30.91h26.66V199.42Z" style="fill:#fff;stroke:#263238;stroke-linejoin:round"></path><ellipse cx="413.13" cy="230.32" rx="21.37" ry="30.91" style="fill:#fff;stroke:#263238;stroke-linejoin:round"></ellipse><ellipse cx="416.83" cy="230.32" rx="32.39" ry="46.85" style="fill:#263238;stroke:#263238;stroke-linejoin:round"></ellipse><ellipse cx="424.35" cy="230.32" rx="32.39" ry="46.85" style="fill:#fff;stroke:#263238;stroke-linejoin:round"></ellipse><ellipse cx="424.35" cy="230.32" rx="13.37" ry="19.33" style="fill:#263238;stroke:#263238;stroke-linejoin:round"></ellipse><ellipse cx="427.67" cy="230.32" rx="13.37" ry="19.33" style="fill:#fff;stroke:#263238;stroke-linejoin:round"></ellipse><line x1="434.49" y1="213.19" x2="424.35" y2="249.66" style="fill:#fff;stroke:#263238;stroke-linejoin:round"></line><line x1="358.43" y1="224.8" x2="346.43" y2="224.8" style="fill:none;stroke:#000000;stroke-linecap:round;stroke-linejoin:round;stroke-width:3px"></line><line x1="364.14" y1="217.41" x2="352.14" y2="217.41" style="fill:none;stroke:#000000;stroke-linecap:round;stroke-linejoin:round;stroke-width:3px"></line><line x1="357.57" y1="232.55" x2="345.57" y2="232.55" style="fill:none;stroke:#000000;stroke-linecap:round;stroke-linejoin:round;stroke-width:3px"></line><line x1="362.15" y1="240" x2="350.15" y2="240" style="fill:none;stroke:#000000;stroke-linecap:round;stroke-linejoin:round;stroke-width:3px"></line><path d="M282.55,382.5c-1.55,0-2.81,1.82-2.81,4.07s1.26,4.07,2.81,4.07h7.14V382.5Z" style="fill:#fff;stroke:#263238;stroke-linejoin:round"></path><path d="M292.51,386.57c0,2.25-1.26,4.07-2.82,4.07s-2.81-1.82-2.81-4.07,1.26-4.07,2.81-4.07S292.51,384.32,292.51,386.57Z" style="fill:#fff;stroke:#263238;stroke-linejoin:round"></path><path d="M291.86,378.21c-3.19,0-5.78,3.74-5.78,8.36s2.59,8.36,5.78,8.36h7.21V378.21Z" style="fill:#fff;stroke:#263238;stroke-linejoin:round"></path><path d="M304.85,386.57c0,4.62-2.59,8.36-5.78,8.36s-5.78-3.74-5.78-8.36,2.59-8.36,5.78-8.36S304.85,382,304.85,386.57Z" style="fill:#fff;stroke:#263238;stroke-linejoin:round"></path><ellipse cx="300.07" cy="386.57" rx="8.76" ry="12.67" style="fill:#fff;stroke:#263238;stroke-linejoin:round"></ellipse><ellipse cx="302.11" cy="386.57" rx="8.76" ry="12.67" style="fill:#fff;stroke:#263238;stroke-linejoin:round"></ellipse><path d="M305.72,386.57c0,2.89-1.62,5.23-3.61,5.23s-3.62-2.34-3.62-5.23,1.62-5.23,3.62-5.23S305.72,383.68,305.72,386.57Z" style="fill:#fff;stroke:#263238;stroke-linejoin:round"></path><path d="M306.62,386.57c0,2.89-1.62,5.23-3.61,5.23s-3.62-2.34-3.62-5.23,1.62-5.23,3.62-5.23S306.62,383.68,306.62,386.57Z" style="fill:#fff;stroke:#263238;stroke-linejoin:round"></path><path d="M282.55,413.8c-1.55,0-2.81,1.82-2.81,4.07s1.26,4.06,2.81,4.06h7.14V413.8Z" style="fill:#fff;stroke:#263238;stroke-linejoin:round"></path><path d="M292.51,417.87c0,2.24-1.26,4.06-2.82,4.06s-2.81-1.82-2.81-4.06,1.26-4.07,2.81-4.07S292.51,415.62,292.51,417.87Z" style="fill:#fff;stroke:#263238;stroke-linejoin:round"></path><path d="M291.86,409.51c-3.19,0-5.78,3.74-5.78,8.36s2.59,8.36,5.78,8.36h7.21V409.51Z" style="fill:#fff;stroke:#263238;stroke-linejoin:round"></path><path d="M304.85,417.87c0,4.61-2.59,8.36-5.78,8.36s-5.78-3.75-5.78-8.36,2.59-8.36,5.78-8.36S304.85,413.25,304.85,417.87Z" style="fill:#fff;stroke:#263238;stroke-linejoin:round"></path><ellipse cx="300.07" cy="417.87" rx="8.76" ry="12.67" style="fill:#fff;stroke:#263238;stroke-linejoin:round"></ellipse><ellipse cx="302.11" cy="417.87" rx="8.76" ry="12.67" style="fill:#fff;stroke:#263238;stroke-linejoin:round"></ellipse><path d="M305.72,417.87c0,2.89-1.62,5.23-3.61,5.23s-3.62-2.34-3.62-5.23,1.62-5.23,3.62-5.23S305.72,415,305.72,417.87Z" style="fill:#fff;stroke:#263238;stroke-linejoin:round"></path><path d="M306.62,417.87c0,2.89-1.62,5.23-3.61,5.23s-3.62-2.34-3.62-5.23,1.62-5.23,3.62-5.23S306.62,415,306.62,417.87Z" style="fill:#fff;stroke:#263238;stroke-linejoin:round"></path><path d="M311.55,280.58a12.68,12.68,0,0,1-3.64,1.82" style="fill:none;stroke:#263238;stroke-linejoin:round"></path><path d="M298.94,282a13,13,0,1,1,14.9-3.48" style="fill:none;stroke:#263238;stroke-linejoin:round"></path><ellipse cx="302.5" cy="127" rx="13" ry="19.5" transform="translate(95.22 381.3) rotate(-73.59)" style="fill:#fff;stroke:#263238;stroke-linejoin:round"></ellipse><circle cx="279" cy="296" r="6" style="fill:#fff;stroke:#263238;stroke-linejoin:round"></circle></g><g id="freepik--face-1--inject-7"><ellipse cx="133.81" cy="386.57" rx="5.78" ry="8.36" style="fill:#fff;stroke:#263238;stroke-linejoin:round"></ellipse><ellipse cx="130.77" cy="386.57" rx="8.76" ry="12.67" style="fill:#fff;stroke:#263238;stroke-linejoin:round"></ellipse><ellipse cx="132.81" cy="386.57" rx="8.76" ry="12.67" style="fill:#fff;stroke:#263238;stroke-linejoin:round"></ellipse><path d="M135,378.4c-3.11,0-5.64,3.66-5.64,8.17s2.53,8.17,5.64,8.17h6.74V378.4Z" style="fill:#fff;stroke:#263238;stroke-linejoin:round"></path><path d="M147.39,386.57c0,4.51-2.53,8.17-5.65,8.17s-5.64-3.66-5.64-8.17,2.52-8.17,5.64-8.17S147.39,382.06,147.39,386.57Z" style="fill:#fff;stroke:#263238;stroke-linejoin:round"></path><path d="M143.19,382.5c-1.56,0-2.82,1.82-2.82,4.07s1.26,4.07,2.82,4.07h7.14V382.5Z" style="fill:#fff;stroke:#263238;stroke-linejoin:round"></path><path d="M153.14,386.57c0,2.25-1.26,4.07-2.81,4.07s-2.81-1.82-2.81-4.07,1.26-4.07,2.81-4.07S153.14,384.32,153.14,386.57Z" style="fill:#fff;stroke:#263238;stroke-linejoin:round"></path><ellipse cx="133.81" cy="417.87" rx="5.78" ry="8.36" style="fill:#fff;stroke:#263238;stroke-linejoin:round"></ellipse><ellipse cx="130.77" cy="417.87" rx="8.76" ry="12.67" style="fill:#fff;stroke:#263238;stroke-linejoin:round"></ellipse><ellipse cx="132.81" cy="417.87" rx="8.76" ry="12.67" style="fill:#fff;stroke:#263238;stroke-linejoin:round"></ellipse><path d="M135,409.7c-3.11,0-5.64,3.66-5.64,8.17S131.89,426,135,426h6.74V409.7Z" style="fill:#fff;stroke:#263238;stroke-linejoin:round"></path><path d="M147.39,417.87c0,4.51-2.53,8.16-5.65,8.16s-5.64-3.65-5.64-8.16,2.52-8.17,5.64-8.17S147.39,413.36,147.39,417.87Z" style="fill:#fff;stroke:#263238;stroke-linejoin:round"></path><path d="M143.19,413.8c-1.56,0-2.82,1.82-2.82,4.07s1.26,4.06,2.82,4.06h7.14V413.8Z" style="fill:#fff;stroke:#263238;stroke-linejoin:round"></path><path d="M153.14,417.87c0,2.24-1.26,4.06-2.81,4.06s-2.81-1.82-2.81-4.06,1.26-4.07,2.81-4.07S153.14,415.62,153.14,417.87Z" style="fill:#fff;stroke:#263238;stroke-linejoin:round"></path><ellipse cx="91.66" cy="230.32" rx="32.39" ry="46.85" style="fill:#263238;stroke:#263238;stroke-linejoin:round"></ellipse><ellipse cx="99.18" cy="230.32" rx="32.39" ry="46.85" style="fill:#fff;stroke:#263238;stroke-linejoin:round"></ellipse><path d="M104.83,199.42c-11.8,0-21.37,13.83-21.37,30.9s9.57,30.91,21.37,30.91h26.66V199.42Z" style="fill:#fff;stroke:#263238;stroke-linejoin:round"></path><ellipse cx="131.49" cy="230.32" rx="21.37" ry="30.91" style="fill:#fff;stroke:#263238;stroke-linejoin:round"></ellipse><path d="M163.35,357.59c4-10.24,1.14-26.74,1.14-26.74a23.35,23.35,0,0,1-7.4-8c-3.41-5.69,1.14-12.52,1.14-12.52l-5.12-10.24L158.23,287s-7.4-19.92-9.1-24.47,1.13-4,4.55-10.81,5.12-23.33,5.69-37.55-9.11-64.29,13.65-95c22.65-30.57,68.37-34.1,68.83-34.13l-.61-.13c-1.09-.24-2.18-.47-3.31-.69l-.13,0c-1.33-.26-2.7-.5-4.09-.72q2.08.33,4.08.72a126.74,126.74,0,0,0-47.13-.29c-49.5,9.1-76.81,56.89-80.79,76.81s-2.28,59.17-2.28,72.26-4.55,34.13,2.85,54.62,24.46,58,29,67.7,9.68,21.62,26.74,24.47l1.51.23C164.77,376.16,160,366.27,163.35,357.59Z" style="fill:#fff;stroke:#263238;stroke-linejoin:round"></path><path d="M131.9,197.12c-.12-17.82-3.32-55.49,14.83-83.72,4.36-6.79,8.19-12.78,13.15-17.08" style="fill:none;stroke:#263238;stroke-linejoin:round"></path><path d="M136.92,309.56s-5.25,14.27-3.92,29.6" style="fill:#fff;stroke:#263238;stroke-linejoin:round"></path><path d="M153.43,227.16a10.77,10.77,0,0,0,0-15.95c-5.93-5.38-14-11.5-20-11.5s-14.1,6.12-20,11.5a10.75,10.75,0,0,0,0,15.95c5.93,5.38,14,11.51,20,11.51S147.5,232.54,153.43,227.16Z" style="fill:#263238;stroke:#263238;stroke-linejoin:round"></path><path d="M142.7,266.18c-2.31,7.52-6.36,13.3-2.89,16.19S158.23,287,158.23,287s-7.4-19.92-9.1-24.47a5.31,5.31,0,0,1-.46-2.8C147.18,259.87,144.35,260.8,142.7,266.18Z" style="fill:#263238;stroke:#263238;stroke-linejoin:round"></path><path d="M153.11,300.12a17.92,17.92,0,0,0-9.83,2.5,17.06,17.06,0,0,0-6.36,6.94h21.31Z" style="fill:#263238;stroke:#263238;stroke-linejoin:round"></path><path d="M157.09,322.88c-3.41-5.69,1.14-12.52,1.14-12.52l-.41-.8h-20.9s0,8.09,10.41,13.88,17.16,7.41,17.16,7.41A23.35,23.35,0,0,1,157.09,322.88Z" style="fill:#fff;stroke:#263238;stroke-linejoin:round"></path><ellipse cx="130.55" cy="219.19" rx="11.38" ry="14.98" style="fill:#6b6b6b;stroke:#263238;stroke-linejoin:round"></ellipse><ellipse cx="130.55" cy="219.19" rx="8.54" ry="11.24" style="fill:#263238;stroke:#263238;stroke-linejoin:round"></ellipse><path d="M135.53,219.19c0-3.62-2.23-6.56-5-6.56s-5,2.94-5,6.56,2.23,6.55,5,6.55S135.53,222.81,135.53,219.19Z" style="fill:#000000;stroke:#263238;stroke-linejoin:round"></path></g><g id="freepik--Graphics--inject-7"><polyline points="354.73 139.12 398.49 95.37 441.38 95.37" style="fill:none;stroke:#263238;stroke-linejoin:round"></polyline><circle cx="441.5" cy="95.06" r="3.75" style="fill:#263238;stroke:#263238;stroke-linejoin:round"></circle><line x1="440.21" y1="105.13" x2="465.84" y2="105.13" style="fill:#263238;stroke:#263238;stroke-linejoin:round"></line><line x1="440.21" y1="111.07" x2="465.84" y2="111.07" style="fill:#263238;stroke:#263238;stroke-linejoin:round"></line><line x1="440.21" y1="117" x2="465.84" y2="117" style="fill:#263238;stroke:#263238;stroke-linejoin:round"></line><line x1="440.21" y1="122.94" x2="465.84" y2="122.94" style="fill:#263238;stroke:#263238;stroke-linejoin:round"></line><polyline points="102.53 284.1 94.8 302.12 45.05 302.12" style="fill:none;stroke:#263238;stroke-linejoin:round"></polyline><circle cx="45.05" cy="302.12" r="3.75" style="fill:#263238;stroke:#263238;stroke-linejoin:round"></circle><line x1="33.21" y1="313.13" x2="58.84" y2="313.13" style="fill:#263238;stroke:#263238;stroke-linejoin:round"></line><line x1="33.21" y1="319.07" x2="58.84" y2="319.07" style="fill:#263238;stroke:#263238;stroke-linejoin:round"></line><line x1="33.21" y1="325" x2="58.84" y2="325" style="fill:#263238;stroke:#263238;stroke-linejoin:round"></line><line x1="33.21" y1="330.94" x2="58.84" y2="330.94" style="fill:#263238;stroke:#263238;stroke-linejoin:round"></line><line x1="149.71" y1="428.22" x2="149.71" y2="460.82" style="fill:none;stroke:#263238;stroke-linejoin:round"></line><circle cx="149.89" cy="459.93" r="3.75" style="fill:#263238;stroke:#263238;stroke-linejoin:round"></circle><line x1="113.37" y1="449.12" x2="139" y2="449.12" style="fill:#263238;stroke:#263238;stroke-linejoin:round"></line><line x1="113.37" y1="455.06" x2="139" y2="455.06" style="fill:#263238;stroke:#263238;stroke-linejoin:round"></line><line x1="113.37" y1="461" x2="139" y2="461" style="fill:#263238;stroke:#263238;stroke-linejoin:round"></line><line x1="113.37" y1="466.94" x2="139" y2="466.94" style="fill:#263238;stroke:#263238;stroke-linejoin:round"></line><polyline points="310.87 417.87 331.57 417.87 331.57 444.52 366.74 444.52" style="fill:none;stroke:#263238;stroke-linejoin:round"></polyline><circle cx="367.61" cy="444.47" r="3.75" style="fill:#263238;stroke:#263238;stroke-linejoin:round"></circle><line x1="377.37" y1="435.12" x2="403" y2="435.12" style="fill:#263238;stroke:#263238;stroke-linejoin:round"></line><line x1="377.37" y1="441.06" x2="403" y2="441.06" style="fill:#263238;stroke:#263238;stroke-linejoin:round"></line><line x1="377.37" y1="447" x2="403" y2="447" style="fill:#263238;stroke:#263238;stroke-linejoin:round"></line><line x1="377.37" y1="452.94" x2="403" y2="452.94" style="fill:#263238;stroke:#263238;stroke-linejoin:round"></line><line x1="392.21" y1="390.06" x2="448.05" y2="390.06" style="fill:none;stroke:#8f8f8f;stroke-miterlimit:10"></line><line x1="420.17" y1="390.06" x2="420.17" y2="362.33" style="fill:none;stroke:#8f8f8f;stroke-miterlimit:10"></line><circle cx="392.21" cy="390.06" r="10.25" transform="translate(-118.87 178.47) rotate(-22.35)" style="fill:#fff;stroke:#8f8f8f;stroke-miterlimit:10"></circle><path d="M400.35,396.27l-8.41-4.77V379.82a10.25,10.25,0,1,0,8.41,16.45Z" style="fill:#000000;stroke:#8f8f8f;stroke-miterlimit:10"></path><path d="M398.22,390.06a6,6,0,1,1-6-6A6,6,0,0,1,398.22,390.06Z" style="fill:#fff;stroke:#8f8f8f;stroke-miterlimit:10"></path><circle cx="420.17" cy="390.06" r="10.25" transform="translate(-116.77 189.1) rotate(-22.35)" style="fill:#fff;stroke:#8f8f8f;stroke-miterlimit:10"></circle><path d="M428.31,396.27l-8.42-4.77V379.82a10.25,10.25,0,1,0,8.42,16.45Z" style="fill:#000000;stroke:#8f8f8f;stroke-miterlimit:10"></path><path d="M426.18,390.06a6,6,0,1,1-6-6A6,6,0,0,1,426.18,390.06Z" style="fill:#fff;stroke:#8f8f8f;stroke-miterlimit:10"></path><circle cx="448.12" cy="390.06" r="10.25" transform="translate(-27.48 746.1) rotate(-77.86)" style="fill:#fff;stroke:#8f8f8f;stroke-miterlimit:10"></circle><path d="M456.26,396.27l-8.41-4.77V379.82a10.25,10.25,0,1,0,8.41,16.45Z" style="fill:#000000;stroke:#8f8f8f;stroke-miterlimit:10"></path><path d="M454.13,390.06a6,6,0,1,1-6-6A6,6,0,0,1,454.13,390.06Z" style="fill:#fff;stroke:#8f8f8f;stroke-miterlimit:10"></path><polygon points="408.23 361.86 390.33 361.86 390.33 341.33 395.04 336.8 408.23 336.8 408.23 361.86" style="fill:#fff;stroke:#8f8f8f;stroke-linecap:round;stroke-linejoin:round"></polygon><polygon points="390.33 341.33 395.19 341.33 395.19 336.8 390.33 341.33" style="fill:#fff;stroke:#8f8f8f;stroke-linecap:round;stroke-linejoin:round"></polygon><polygon points="427.8 361.86 409.9 361.86 409.9 341.33 414.61 336.8 427.8 336.8 427.8 361.86" style="fill:#fff;stroke:#8f8f8f;stroke-linecap:round;stroke-linejoin:round"></polygon><polygon points="409.9 341.33 414.76 341.33 414.76 336.8 409.9 341.33" style="fill:#fff;stroke:#8f8f8f;stroke-linecap:round;stroke-linejoin:round"></polygon><polygon points="447.37 361.86 429.47 361.86 429.47 341.33 434.18 336.8 447.37 336.8 447.37 361.86" style="fill:#fff;stroke:#8f8f8f;stroke-linecap:round;stroke-linejoin:round"></polygon><polygon points="429.47 341.33 434.33 341.33 434.33 336.8 429.47 341.33" style="fill:#fff;stroke:#8f8f8f;stroke-linecap:round;stroke-linejoin:round"></polygon><line x1="419.93" y1="277.24" x2="419.93" y2="323.56" style="fill:none;stroke:#263238;stroke-linejoin:round"></line><path d="M423.39,323.23a3.75,3.75,0,1,0-3.75,3.75A3.75,3.75,0,0,0,423.39,323.23Z" style="fill:#263238;stroke:#263238;stroke-linejoin:round"></path></g><g id="freepik--code-1--inject-7"><path d="M60.62,60.7h-4.3a1.06,1.06,0,0,1,0-2.11h4.3a1.06,1.06,0,1,1,0,2.11Zm1.06,3.85a1.07,1.07,0,0,0-1.06-1.06h-4.3a1.06,1.06,0,0,0,0,2.12h4.3A1.06,1.06,0,0,0,61.68,64.55Zm0,4.91a1.06,1.06,0,0,0-1.06-1.06h-4.3a1.06,1.06,0,0,0,0,2.12h4.3A1.06,1.06,0,0,0,61.68,69.46Zm0,4.91a1.06,1.06,0,0,0-1.06-1.06h-4.3a1.06,1.06,0,0,0,0,2.12h4.3A1.07,1.07,0,0,0,61.68,74.37Zm0,4.91a1.06,1.06,0,0,0-1.06-1.06h-4.3a1.06,1.06,0,0,0,0,2.11h4.3A1.06,1.06,0,0,0,61.68,79.28Zm0,4.9a1.07,1.07,0,0,0-1.06-1.06h-4.3a1.06,1.06,0,0,0,0,2.12h4.3A1.06,1.06,0,0,0,61.68,84.18Zm0,4.91A1.07,1.07,0,0,0,60.62,88h-4.3a1.06,1.06,0,0,0,0,2.12h4.3A1.06,1.06,0,0,0,61.68,89.09Zm0,4.91a1.06,1.06,0,0,0-1.06-1.06h-4.3a1.06,1.06,0,0,0,0,2.12h4.3A1.07,1.07,0,0,0,61.68,94ZM77.74,59.64a1.05,1.05,0,0,0-1.06-1H65.41a1.06,1.06,0,1,0,0,2.11H76.68A1.05,1.05,0,0,0,77.74,59.64Zm0,4.91a1.06,1.06,0,0,0-1.06-1.06H65.41a1.06,1.06,0,1,0,0,2.12H76.68A1.05,1.05,0,0,0,77.74,64.55Zm0,4.91a1.05,1.05,0,0,0-1.06-1.06H65.41a1.06,1.06,0,1,0,0,2.12H76.68A1.05,1.05,0,0,0,77.74,69.46Zm0,4.91a1.05,1.05,0,0,0-1.06-1.06H65.41a1.06,1.06,0,0,0,0,2.12H76.68A1.06,1.06,0,0,0,77.74,74.37Zm0,4.91a1.05,1.05,0,0,0-1.06-1.06H65.41a1.06,1.06,0,1,0,0,2.11H76.68A1.05,1.05,0,0,0,77.74,79.28Zm13.5,4.9a1.06,1.06,0,0,0-1.06-1.06H78.91a1.06,1.06,0,0,0,0,2.12H90.18A1.05,1.05,0,0,0,91.24,84.18Zm0,4.91A1.06,1.06,0,0,0,90.18,88H78.91a1.06,1.06,0,0,0,0,2.12H90.18A1.05,1.05,0,0,0,91.24,89.09Zm0,4.91a1.05,1.05,0,0,0-1.06-1.06H78.91a1.06,1.06,0,0,0,0,2.12H90.18A1.06,1.06,0,0,0,91.24,94ZM82.7,59.64a1.23,1.23,0,1,0-1.22,1.23A1.22,1.22,0,0,0,82.7,59.64Zm3.68,0a1.23,1.23,0,1,0-1.22,1.23A1.22,1.22,0,0,0,86.38,59.64Zm3.69,0a1.23,1.23,0,1,0-1.23,1.23A1.23,1.23,0,0,0,90.07,59.64Zm3.68,0a1.23,1.23,0,1,0-1.23,1.23A1.23,1.23,0,0,0,93.75,59.64Zm3.68,0a1.23,1.23,0,1,0-1.23,1.23A1.23,1.23,0,0,0,97.43,59.64Zm3.68,0a1.23,1.23,0,1,0-1.23,1.23A1.23,1.23,0,0,0,101.11,59.64ZM82.7,69.46a1.23,1.23,0,1,0-1.22,1.23A1.23,1.23,0,0,0,82.7,69.46Zm3.68,0a1.23,1.23,0,1,0-1.22,1.23A1.22,1.22,0,0,0,86.38,69.46Zm3.69,0a1.23,1.23,0,1,0-1.23,1.23A1.23,1.23,0,0,0,90.07,69.46Zm3.68,0a1.23,1.23,0,1,0-1.23,1.23A1.23,1.23,0,0,0,93.75,69.46Zm3.68,0a1.23,1.23,0,1,0-1.23,1.23A1.23,1.23,0,0,0,97.43,69.46Zm3.68,0a1.23,1.23,0,1,0-1.23,1.23A1.23,1.23,0,0,0,101.11,69.46ZM95.28,83.57a1.23,1.23,0,1,0-1.23,1.23A1.23,1.23,0,0,0,95.28,83.57Zm3.68,0a1.23,1.23,0,1,0-1.23,1.23A1.23,1.23,0,0,0,99,83.57Zm3.68,0a1.23,1.23,0,1,0-1.22,1.23A1.23,1.23,0,0,0,102.64,83.57Zm3.68,0a1.23,1.23,0,1,0-1.22,1.23A1.23,1.23,0,0,0,106.32,83.57Zm3.68,0a1.23,1.23,0,1,0-1.22,1.23A1.23,1.23,0,0,0,110,83.57Zm3.69,0a1.23,1.23,0,1,0-1.23,1.23A1.23,1.23,0,0,0,113.69,83.57ZM95.28,93.69a1.23,1.23,0,1,0-1.23,1.23A1.22,1.22,0,0,0,95.28,93.69Zm3.68,0a1.23,1.23,0,1,0-1.23,1.23A1.22,1.22,0,0,0,99,93.69Zm3.68,0a1.23,1.23,0,1,0-1.22,1.23A1.22,1.22,0,0,0,102.64,93.69Zm3.68,0a1.23,1.23,0,1,0-1.22,1.23A1.22,1.22,0,0,0,106.32,93.69Zm3.68,0a1.23,1.23,0,1,0-1.22,1.23A1.22,1.22,0,0,0,110,93.69Zm3.69,0a1.23,1.23,0,1,0-1.23,1.23A1.22,1.22,0,0,0,113.69,93.69Z" style="fill:#000000"></path><path d="M60.62,100h-4.3a1.06,1.06,0,0,1,0-2.12h4.3a1.06,1.06,0,0,1,0,2.12Zm1.06,3.84a1.06,1.06,0,0,0-1.06-1h-4.3a1.06,1.06,0,0,0,0,2.11h4.3A1.06,1.06,0,0,0,61.68,103.82Zm0,4.91a1.07,1.07,0,0,0-1.06-1.06h-4.3a1.06,1.06,0,0,0,0,2.12h4.3A1.06,1.06,0,0,0,61.68,108.73Zm0,4.91a1.06,1.06,0,0,0-1.06-1.06h-4.3a1.06,1.06,0,0,0,0,2.12h4.3A1.06,1.06,0,0,0,61.68,113.64Zm0,4.91a1.06,1.06,0,0,0-1.06-1.06h-4.3a1.06,1.06,0,0,0,0,2.12h4.3A1.07,1.07,0,0,0,61.68,118.55Zm0,4.91a1.06,1.06,0,0,0-1.06-1.06h-4.3a1.06,1.06,0,0,0,0,2.12h4.3A1.07,1.07,0,0,0,61.68,123.46Zm0,4.9a1.06,1.06,0,0,0-1.06-1.05h-4.3a1.06,1.06,0,0,0,0,2.11h4.3A1.06,1.06,0,0,0,61.68,128.36Zm0,4.91a1.07,1.07,0,0,0-1.06-1.06h-4.3a1.06,1.06,0,0,0,0,2.12h4.3A1.06,1.06,0,0,0,61.68,133.27ZM77.74,98.92a1.05,1.05,0,0,0-1.06-1.06H65.41a1.06,1.06,0,0,0,0,2.12H76.68A1.06,1.06,0,0,0,77.74,98.92Zm0,4.9a1.05,1.05,0,0,0-1.06-1H65.41a1.06,1.06,0,1,0,0,2.11H76.68A1.05,1.05,0,0,0,77.74,103.82Zm0,4.91a1.06,1.06,0,0,0-1.06-1.06H65.41a1.06,1.06,0,0,0,0,2.12H76.68A1.05,1.05,0,0,0,77.74,108.73Zm0,4.91a1.05,1.05,0,0,0-1.06-1.06H65.41a1.06,1.06,0,0,0,0,2.12H76.68A1.05,1.05,0,0,0,77.74,113.64Zm0,4.91a1.05,1.05,0,0,0-1.06-1.06H65.41a1.06,1.06,0,0,0,0,2.12H76.68A1.06,1.06,0,0,0,77.74,118.55Zm13.5,4.91a1.05,1.05,0,0,0-1.06-1.06H78.91a1.06,1.06,0,1,0,0,2.12H90.18A1.06,1.06,0,0,0,91.24,123.46Zm0,4.9a1.05,1.05,0,0,0-1.06-1.05H78.91a1.06,1.06,0,1,0,0,2.11H90.18A1.05,1.05,0,0,0,91.24,128.36Zm0,4.91a1.06,1.06,0,0,0-1.06-1.06H78.91a1.06,1.06,0,0,0,0,2.12H90.18A1.05,1.05,0,0,0,91.24,133.27ZM82.7,98.92a1.23,1.23,0,1,0-1.22,1.22A1.23,1.23,0,0,0,82.7,98.92Zm3.68,0a1.23,1.23,0,1,0-1.22,1.22A1.22,1.22,0,0,0,86.38,98.92Zm3.69,0a1.23,1.23,0,1,0-1.23,1.22A1.23,1.23,0,0,0,90.07,98.92Zm3.68,0a1.23,1.23,0,1,0-1.23,1.22A1.23,1.23,0,0,0,93.75,98.92Zm3.68,0a1.23,1.23,0,1,0-1.23,1.22A1.23,1.23,0,0,0,97.43,98.92Zm3.68,0a1.23,1.23,0,1,0-1.23,1.22A1.23,1.23,0,0,0,101.11,98.92ZM82.7,108.73A1.23,1.23,0,1,0,81.48,110,1.22,1.22,0,0,0,82.7,108.73Zm3.68,0A1.23,1.23,0,1,0,85.16,110,1.22,1.22,0,0,0,86.38,108.73Zm3.69,0A1.23,1.23,0,1,0,88.84,110,1.23,1.23,0,0,0,90.07,108.73Zm3.68,0A1.23,1.23,0,1,0,92.52,110,1.23,1.23,0,0,0,93.75,108.73Zm3.68,0A1.23,1.23,0,1,0,96.2,110,1.23,1.23,0,0,0,97.43,108.73Zm3.68,0A1.23,1.23,0,1,0,99.88,110,1.23,1.23,0,0,0,101.11,108.73Zm-5.83,14.11a1.23,1.23,0,1,0-1.23,1.23A1.23,1.23,0,0,0,95.28,122.84Zm3.68,0a1.23,1.23,0,1,0-1.23,1.23A1.23,1.23,0,0,0,99,122.84Zm3.68,0a1.23,1.23,0,1,0-1.22,1.23A1.22,1.22,0,0,0,102.64,122.84Zm3.68,0a1.23,1.23,0,1,0-1.22,1.23A1.22,1.22,0,0,0,106.32,122.84Zm3.68,0a1.23,1.23,0,1,0-1.22,1.23A1.22,1.22,0,0,0,110,122.84Zm3.69,0a1.23,1.23,0,1,0-1.23,1.23A1.23,1.23,0,0,0,113.69,122.84ZM95.28,133a1.23,1.23,0,1,0-1.23,1.22A1.23,1.23,0,0,0,95.28,133ZM99,133a1.23,1.23,0,1,0-1.23,1.22A1.23,1.23,0,0,0,99,133Zm3.68,0a1.23,1.23,0,1,0-1.22,1.22A1.23,1.23,0,0,0,102.64,133Zm3.68,0a1.23,1.23,0,1,0-1.22,1.22A1.23,1.23,0,0,0,106.32,133Zm3.68,0a1.23,1.23,0,1,0-1.22,1.22A1.23,1.23,0,0,0,110,133Zm3.69,0a1.23,1.23,0,1,0-1.23,1.22A1.23,1.23,0,0,0,113.69,133Z" style="fill:#000000"></path><path d="M60.62,140.2h-4.3a1.06,1.06,0,0,1,0-2.12h4.3a1.06,1.06,0,0,1,0,2.12Zm1.06,3.85A1.06,1.06,0,0,0,60.62,143h-4.3a1.06,1.06,0,0,0,0,2.12h4.3A1.07,1.07,0,0,0,61.68,144.05Zm0,4.9a1.07,1.07,0,0,0-1.06-1.06h-4.3a1.06,1.06,0,0,0,0,2.12h4.3A1.06,1.06,0,0,0,61.68,149Zm0,4.91a1.07,1.07,0,0,0-1.06-1.06h-4.3a1.06,1.06,0,0,0,0,2.12h4.3A1.06,1.06,0,0,0,61.68,153.86Zm0,4.91a1.06,1.06,0,0,0-1.06-1.06h-4.3a1.06,1.06,0,0,0,0,2.12h4.3A1.07,1.07,0,0,0,61.68,158.77Zm0,4.91a1.06,1.06,0,0,0-1.06-1.06h-4.3a1.06,1.06,0,0,0,0,2.12h4.3A1.07,1.07,0,0,0,61.68,163.68Zm0,4.91a1.06,1.06,0,0,0-1.06-1.06h-4.3a1.06,1.06,0,0,0,0,2.11h4.3A1.06,1.06,0,0,0,61.68,168.59Zm0,4.9a1.07,1.07,0,0,0-1.06-1.06h-4.3a1.06,1.06,0,0,0,0,2.12h4.3A1.06,1.06,0,0,0,61.68,173.49Zm16.06-34.35a1.05,1.05,0,0,0-1.06-1.06H65.41a1.06,1.06,0,1,0,0,2.12H76.68A1.06,1.06,0,0,0,77.74,139.14Zm0,4.91A1.05,1.05,0,0,0,76.68,143H65.41a1.06,1.06,0,0,0,0,2.12H76.68A1.06,1.06,0,0,0,77.74,144.05Zm0,4.9a1.06,1.06,0,0,0-1.06-1.06H65.41a1.06,1.06,0,0,0,0,2.12H76.68A1.05,1.05,0,0,0,77.74,149Zm0,4.91a1.06,1.06,0,0,0-1.06-1.06H65.41a1.06,1.06,0,1,0,0,2.12H76.68A1.05,1.05,0,0,0,77.74,153.86Zm0,4.91a1.05,1.05,0,0,0-1.06-1.06H65.41a1.06,1.06,0,0,0,0,2.12H76.68A1.06,1.06,0,0,0,77.74,158.77Zm13.5,4.91a1.05,1.05,0,0,0-1.06-1.06H78.91a1.06,1.06,0,0,0,0,2.12H90.18A1.06,1.06,0,0,0,91.24,163.68Zm0,4.91a1.05,1.05,0,0,0-1.06-1.06H78.91a1.06,1.06,0,1,0,0,2.11H90.18A1.05,1.05,0,0,0,91.24,168.59Zm0,4.9a1.06,1.06,0,0,0-1.06-1.06H78.91a1.06,1.06,0,0,0,0,2.12H90.18A1.05,1.05,0,0,0,91.24,173.49ZM82.7,139.14a1.23,1.23,0,1,0-1.22,1.23A1.23,1.23,0,0,0,82.7,139.14Zm3.68,0a1.23,1.23,0,1,0-1.22,1.23A1.22,1.22,0,0,0,86.38,139.14Zm3.69,0a1.23,1.23,0,1,0-1.23,1.23A1.23,1.23,0,0,0,90.07,139.14Zm3.68,0a1.23,1.23,0,1,0-1.23,1.23A1.23,1.23,0,0,0,93.75,139.14Zm3.68,0a1.23,1.23,0,1,0-1.23,1.23A1.23,1.23,0,0,0,97.43,139.14Zm3.68,0a1.23,1.23,0,1,0-1.23,1.23A1.23,1.23,0,0,0,101.11,139.14ZM82.7,149a1.23,1.23,0,1,0-1.22,1.23A1.22,1.22,0,0,0,82.7,149Zm3.68,0a1.23,1.23,0,1,0-1.22,1.23A1.22,1.22,0,0,0,86.38,149Zm3.69,0a1.23,1.23,0,1,0-1.23,1.23A1.23,1.23,0,0,0,90.07,149Zm3.68,0a1.23,1.23,0,1,0-1.23,1.23A1.23,1.23,0,0,0,93.75,149Zm3.68,0a1.23,1.23,0,1,0-1.23,1.23A1.23,1.23,0,0,0,97.43,149Zm3.68,0a1.23,1.23,0,1,0-1.23,1.23A1.23,1.23,0,0,0,101.11,149Zm-5.83,14.11a1.23,1.23,0,1,0-1.23,1.23A1.23,1.23,0,0,0,95.28,163.06Zm3.68,0a1.23,1.23,0,1,0-1.23,1.23A1.23,1.23,0,0,0,99,163.06Zm3.68,0a1.23,1.23,0,1,0-1.22,1.23A1.22,1.22,0,0,0,102.64,163.06Zm3.68,0a1.23,1.23,0,1,0-1.22,1.23A1.22,1.22,0,0,0,106.32,163.06Zm3.68,0a1.23,1.23,0,1,0-1.22,1.23A1.22,1.22,0,0,0,110,163.06Zm3.69,0a1.23,1.23,0,1,0-1.23,1.23A1.23,1.23,0,0,0,113.69,163.06ZM95.28,173.19a1.23,1.23,0,1,0-1.23,1.22A1.23,1.23,0,0,0,95.28,173.19Zm3.68,0a1.23,1.23,0,1,0-1.23,1.22A1.23,1.23,0,0,0,99,173.19Zm3.68,0a1.23,1.23,0,1,0-1.22,1.22A1.23,1.23,0,0,0,102.64,173.19Zm3.68,0a1.23,1.23,0,1,0-1.22,1.22A1.23,1.23,0,0,0,106.32,173.19Zm3.68,0a1.23,1.23,0,1,0-1.22,1.22A1.23,1.23,0,0,0,110,173.19Zm3.69,0a1.23,1.23,0,1,0-1.23,1.22A1.23,1.23,0,0,0,113.69,173.19Z" style="fill:#000000"></path><path d="M126.55,60.7h-4.29a1.06,1.06,0,1,1,0-2.11h4.29a1.06,1.06,0,1,1,0,2.11Zm1.06,3.85a1.06,1.06,0,0,0-1.06-1.06h-4.29a1.06,1.06,0,1,0,0,2.12h4.29A1.05,1.05,0,0,0,127.61,64.55Zm0,4.91a1.05,1.05,0,0,0-1.06-1.06h-4.29a1.06,1.06,0,1,0,0,2.12h4.29A1.05,1.05,0,0,0,127.61,69.46Zm0,4.91a1.05,1.05,0,0,0-1.06-1.06h-4.29a1.06,1.06,0,1,0,0,2.12h4.29A1.06,1.06,0,0,0,127.61,74.37Zm0,4.91a1.05,1.05,0,0,0-1.06-1.06h-4.29a1.06,1.06,0,1,0,0,2.11h4.29A1.05,1.05,0,0,0,127.61,79.28Zm0,4.9a1.06,1.06,0,0,0-1.06-1.06h-4.29a1.06,1.06,0,0,0,0,2.12h4.29A1.05,1.05,0,0,0,127.61,84.18Zm0,4.91A1.06,1.06,0,0,0,126.55,88h-4.29a1.06,1.06,0,0,0,0,2.12h4.29A1.05,1.05,0,0,0,127.61,89.09Zm0,4.91a1.05,1.05,0,0,0-1.06-1.06h-4.29a1.06,1.06,0,1,0,0,2.12h4.29A1.06,1.06,0,0,0,127.61,94Zm16.07-34.36a1.06,1.06,0,0,0-1.06-1H131.34a1.06,1.06,0,1,0,0,2.11h11.28A1.06,1.06,0,0,0,143.68,59.64Zm0,4.91a1.07,1.07,0,0,0-1.06-1.06H131.34a1.06,1.06,0,0,0,0,2.12h11.28A1.06,1.06,0,0,0,143.68,64.55Zm0,4.91a1.06,1.06,0,0,0-1.06-1.06H131.34a1.06,1.06,0,1,0,0,2.12h11.28A1.06,1.06,0,0,0,143.68,69.46Zm0,4.91a1.06,1.06,0,0,0-1.06-1.06H131.34a1.06,1.06,0,0,0,0,2.12h11.28A1.07,1.07,0,0,0,143.68,74.37Zm0,4.91a1.06,1.06,0,0,0-1.06-1.06H131.34a1.06,1.06,0,1,0,0,2.11h11.28A1.06,1.06,0,0,0,143.68,79.28Zm13.49,4.9a1.06,1.06,0,0,0-1.06-1.06H144.84a1.06,1.06,0,0,0,0,2.12h11.27A1.05,1.05,0,0,0,157.17,84.18Zm0,4.91A1.06,1.06,0,0,0,156.11,88H144.84a1.06,1.06,0,0,0,0,2.12h11.27A1.05,1.05,0,0,0,157.17,89.09Zm0,4.91a1.05,1.05,0,0,0-1.06-1.06H144.84a1.06,1.06,0,0,0,0,2.12h11.27A1.06,1.06,0,0,0,157.17,94Zm-8.53-34.36a1.23,1.23,0,1,0-1.23,1.23A1.23,1.23,0,0,0,148.64,59.64Zm3.68,0a1.23,1.23,0,1,0-1.23,1.23A1.23,1.23,0,0,0,152.32,59.64Zm3.68,0a1.23,1.23,0,1,0-1.23,1.23A1.23,1.23,0,0,0,156,59.64Zm3.68,0a1.23,1.23,0,1,0-1.23,1.23A1.23,1.23,0,0,0,159.68,59.64Zm3.68,0a1.23,1.23,0,1,0-1.23,1.23A1.23,1.23,0,0,0,163.36,59.64Zm3.68,0a1.23,1.23,0,1,0-1.23,1.23A1.23,1.23,0,0,0,167,59.64Zm-18.4,9.82a1.23,1.23,0,1,0-1.23,1.23A1.23,1.23,0,0,0,148.64,69.46Zm3.68,0a1.23,1.23,0,1,0-1.23,1.23A1.23,1.23,0,0,0,152.32,69.46Zm3.68,0a1.23,1.23,0,1,0-1.23,1.23A1.23,1.23,0,0,0,156,69.46Zm3.68,0a1.23,1.23,0,1,0-1.23,1.23A1.23,1.23,0,0,0,159.68,69.46Zm3.68,0a1.23,1.23,0,1,0-1.23,1.23A1.23,1.23,0,0,0,163.36,69.46Zm3.68,0a1.23,1.23,0,1,0-1.23,1.23A1.23,1.23,0,0,0,167,69.46Zm-5.83,14.11A1.23,1.23,0,1,0,160,84.8,1.23,1.23,0,0,0,161.21,83.57Zm3.68,0a1.23,1.23,0,1,0-1.22,1.23A1.23,1.23,0,0,0,164.89,83.57Zm3.68,0a1.23,1.23,0,1,0-1.22,1.23A1.23,1.23,0,0,0,168.57,83.57Zm3.69,0A1.23,1.23,0,1,0,171,84.8,1.23,1.23,0,0,0,172.26,83.57Zm3.68,0a1.23,1.23,0,1,0-1.23,1.23A1.23,1.23,0,0,0,175.94,83.57Zm3.68,0a1.23,1.23,0,1,0-1.23,1.23A1.23,1.23,0,0,0,179.62,83.57ZM161.21,93.69A1.23,1.23,0,1,0,160,94.92,1.22,1.22,0,0,0,161.21,93.69Zm3.68,0a1.23,1.23,0,1,0-1.22,1.23A1.22,1.22,0,0,0,164.89,93.69Zm3.68,0a1.23,1.23,0,1,0-1.22,1.23A1.22,1.22,0,0,0,168.57,93.69Zm3.69,0A1.23,1.23,0,1,0,171,94.92,1.22,1.22,0,0,0,172.26,93.69Zm3.68,0a1.23,1.23,0,1,0-1.23,1.23A1.22,1.22,0,0,0,175.94,93.69Zm3.68,0a1.23,1.23,0,1,0-1.23,1.23A1.22,1.22,0,0,0,179.62,93.69Z" style="fill:#000000"></path><path d="M126.55,100.92h-4.29a1.06,1.06,0,1,1,0-2.11h4.29a1.06,1.06,0,1,1,0,2.11Zm1.06,3.85a1.06,1.06,0,0,0-1.06-1.06h-4.29a1.06,1.06,0,0,0,0,2.12h4.29A1.05,1.05,0,0,0,127.61,104.77Zm0,4.91a1.06,1.06,0,0,0-1.06-1.06h-4.29a1.06,1.06,0,0,0,0,2.12h4.29A1.05,1.05,0,0,0,127.61,109.68Zm0,4.91a1.05,1.05,0,0,0-1.06-1.06h-4.29a1.06,1.06,0,0,0,0,2.12h4.29A1.06,1.06,0,0,0,127.61,114.59Zm0,4.91a1.05,1.05,0,0,0-1.06-1.06h-4.29a1.06,1.06,0,1,0,0,2.12h4.29A1.06,1.06,0,0,0,127.61,119.5Zm0,4.9a1.05,1.05,0,0,0-1.06-1.05h-4.29a1.06,1.06,0,1,0,0,2.11h4.29A1.05,1.05,0,0,0,127.61,124.4Zm0,4.91a1.06,1.06,0,0,0-1.06-1.06h-4.29a1.06,1.06,0,1,0,0,2.12h4.29A1.05,1.05,0,0,0,127.61,129.31Zm0,4.91a1.06,1.06,0,0,0-1.06-1.06h-4.29a1.06,1.06,0,0,0,0,2.12h4.29A1.05,1.05,0,0,0,127.61,134.22Zm16.07-34.35a1.06,1.06,0,0,0-1.06-1.06H131.34a1.06,1.06,0,1,0,0,2.11h11.28A1.06,1.06,0,0,0,143.68,99.87Zm0,4.9a1.07,1.07,0,0,0-1.06-1.06H131.34a1.06,1.06,0,0,0,0,2.12h11.28A1.06,1.06,0,0,0,143.68,104.77Zm0,4.91a1.07,1.07,0,0,0-1.06-1.06H131.34a1.06,1.06,0,0,0,0,2.12h11.28A1.06,1.06,0,0,0,143.68,109.68Zm0,4.91a1.06,1.06,0,0,0-1.06-1.06H131.34a1.06,1.06,0,0,0,0,2.12h11.28A1.07,1.07,0,0,0,143.68,114.59Zm0,4.91a1.06,1.06,0,0,0-1.06-1.06H131.34a1.06,1.06,0,0,0,0,2.12h11.28A1.07,1.07,0,0,0,143.68,119.5Zm13.49,4.9a1.05,1.05,0,0,0-1.06-1.05H144.84a1.06,1.06,0,1,0,0,2.11h11.27A1.05,1.05,0,0,0,157.17,124.4Zm0,4.91a1.06,1.06,0,0,0-1.06-1.06H144.84a1.06,1.06,0,1,0,0,2.12h11.27A1.05,1.05,0,0,0,157.17,129.31Zm0,4.91a1.06,1.06,0,0,0-1.06-1.06H144.84a1.06,1.06,0,0,0,0,2.12h11.27A1.05,1.05,0,0,0,157.17,134.22Zm-8.53-34.35a1.23,1.23,0,1,0-1.23,1.22A1.23,1.23,0,0,0,148.64,99.87Zm3.68,0a1.23,1.23,0,1,0-1.23,1.22A1.23,1.23,0,0,0,152.32,99.87Zm3.68,0a1.23,1.23,0,1,0-1.23,1.22A1.23,1.23,0,0,0,156,99.87Zm3.68,0a1.23,1.23,0,1,0-1.23,1.22A1.23,1.23,0,0,0,159.68,99.87Zm3.68,0a1.23,1.23,0,1,0-1.23,1.22A1.23,1.23,0,0,0,163.36,99.87Zm3.68,0a1.23,1.23,0,1,0-1.23,1.22A1.23,1.23,0,0,0,167,99.87Zm-18.4,9.81a1.23,1.23,0,1,0-1.23,1.23A1.23,1.23,0,0,0,148.64,109.68Zm3.68,0a1.23,1.23,0,1,0-1.23,1.23A1.23,1.23,0,0,0,152.32,109.68Zm3.68,0a1.23,1.23,0,1,0-1.23,1.23A1.23,1.23,0,0,0,156,109.68Zm3.68,0a1.23,1.23,0,1,0-1.23,1.23A1.23,1.23,0,0,0,159.68,109.68Zm3.68,0a1.23,1.23,0,1,0-1.23,1.23A1.23,1.23,0,0,0,163.36,109.68Zm3.68,0a1.23,1.23,0,1,0-1.23,1.23A1.23,1.23,0,0,0,167,109.68Zm-5.83,14.11A1.23,1.23,0,1,0,160,125,1.23,1.23,0,0,0,161.21,123.79Zm3.68,0a1.23,1.23,0,1,0-1.22,1.23A1.23,1.23,0,0,0,164.89,123.79Zm3.68,0a1.23,1.23,0,1,0-1.22,1.23A1.23,1.23,0,0,0,168.57,123.79Zm3.69,0A1.23,1.23,0,1,0,171,125,1.23,1.23,0,0,0,172.26,123.79Zm3.68,0a1.23,1.23,0,1,0-1.23,1.23A1.23,1.23,0,0,0,175.94,123.79Zm3.68,0a1.23,1.23,0,1,0-1.23,1.23A1.23,1.23,0,0,0,179.62,123.79Zm-18.41,10.12a1.23,1.23,0,1,0-1.22,1.23A1.22,1.22,0,0,0,161.21,133.91Zm3.68,0a1.23,1.23,0,1,0-1.22,1.23A1.22,1.22,0,0,0,164.89,133.91Zm3.68,0a1.23,1.23,0,1,0-1.22,1.23A1.22,1.22,0,0,0,168.57,133.91Zm3.69,0a1.23,1.23,0,1,0-1.23,1.23A1.23,1.23,0,0,0,172.26,133.91Zm3.68,0a1.23,1.23,0,1,0-1.23,1.23A1.23,1.23,0,0,0,175.94,133.91Zm3.68,0a1.23,1.23,0,1,0-1.23,1.23A1.23,1.23,0,0,0,179.62,133.91Z" style="fill:#000000"></path></g></svg>